<svg width="150" height="150" viewBox="0 0 150 150" fill="none" xmlns="http://www.w3.org/2000/svg">
<path d="M13.6364 20.4545C13.6364 16.7045 16.7045 13.6364 20.4545 13.6364H34.0909V0H20.4545C9.13636 0 0 9.13636 0 20.4545V34.0909H13.6364V20.4545ZM13.6364 129.545V115.909H0V129.545C0 140.864 9.13636 150 20.4545 150H34.0909V136.364H20.4545C16.7045 136.364 13.6364 133.295 13.6364 129.545ZM129.545 0H115.909V13.6364H129.545C133.295 13.6364 136.364 16.7045 136.364 20.4545V34.0909H150V20.4545C150 9.13636 140.864 0 129.545 0ZM136.364 129.545C136.364 133.295 133.295 136.364 129.545 136.364H115.909V150H129.545C140.864 150 150 140.864 150 129.545V115.909H136.364V129.545ZM122.727 94.5682V55.4318C122.727 50.5227 120.136 46.0227 115.909 43.6364L81.8182 24C79.7045 22.7727 77.3864 22.1591 75 22.1591C72.6136 22.1591 70.2955 22.7727 68.1818 24L34.0909 43.5682C29.8636 46.0227 27.2727 50.5227 27.2727 55.4318V94.5682C27.2727 99.4773 29.8636 103.977 34.0909 106.364L68.1818 126C70.2955 127.227 72.6136 127.841 75 127.841C77.3864 127.841 79.7045 127.227 81.8182 126L115.909 106.364C120.136 103.977 122.727 99.4773 122.727 94.5682ZM68.1818 110.25L40.9091 94.5682V63L68.1818 78.8864V110.25ZM75 67.0909L48 51.3409L75 35.7955L102 51.3409L75 67.0909ZM109.091 94.5682L81.8182 110.25V78.8864L109.091 63V94.5682Z" fill="white"/>
</svg>
