<svg width="15" height="18" viewBox="0 0 15 18" fill="none" xmlns="http://www.w3.org/2000/svg">
<path d="M13.5 0H2.73214C2.64375 0 2.57143 0.0723214 2.57143 0.160714V1.28571C2.57143 1.37411 2.64375 1.44643 2.73214 1.44643H12.6964V15.2679C12.6964 15.3562 12.7688 15.4286 12.8571 15.4286H13.9821C14.0705 15.4286 14.1429 15.3562 14.1429 15.2679V0.642857C14.1429 0.287277 13.8556 0 13.5 0ZM10.9286 2.57143H0.642857C0.287277 2.57143 0 2.85871 0 3.21429V13.8757C0 14.0464 0.0683035 14.2092 0.188839 14.3297L3.67031 17.8112C3.71451 17.8554 3.76473 17.8915 3.81897 17.9217V17.9598H3.90335C3.97366 17.9859 4.04799 18 4.12433 18H10.9286C11.2842 18 11.5714 17.7127 11.5714 17.3571V3.21429C11.5714 2.85871 11.2842 2.57143 10.9286 2.57143ZM4.45982 16.7143H4.4558L1.44643 13.7049V13.7009H4.45982V16.7143Z" fill="#CCCCCC"/>
</svg>
