<svg width="800" height="400" viewBox="0 0 800 400" fill="none" xmlns="http://www.w3.org/2000/svg">
<rect x="5" y="5" width="790" height="390" rx="10" fill="#222222"/>
<rect x="5" y="5" width="790" height="390" rx="10" stroke="#3E5560" stroke-width="10" style="mix-blend-mode:overlay"/>
<path d="M47.7246 73.272V80.496C49.6446 80.704 51.3486 81.168 52.8366 81.888C54.3246 82.608 55.5646 83.432 56.5566 84.36L54.0846 86.904C53.1566 86.04 52.1646 85.352 51.1086 84.84C50.0526 84.312 48.9246 83.976 47.7246 83.832V94.776C49.3406 95.304 50.8446 95.984 52.2366 96.816C53.6446 97.648 54.7806 98.712 55.6446 100.008C56.5086 101.304 56.9406 102.936 56.9406 104.904C56.9406 106.424 56.5966 107.856 55.9086 109.2C55.2206 110.528 54.1886 111.656 52.8126 112.584C51.4526 113.496 49.7566 114.088 47.7246 114.36V121.344H44.4846V114.504C42.2126 114.36 40.2366 113.832 38.5566 112.92C36.8926 112.008 35.5246 111.032 34.4526 109.992L36.8526 107.328C37.8606 108.352 38.9886 109.208 40.2366 109.896C41.5006 110.568 42.9166 110.968 44.4846 111.096V97.8C41.6846 96.872 39.5166 95.68 37.9806 94.224C36.4606 92.752 35.7006 90.904 35.7006 88.68C35.7006 87.384 36.0206 86.152 36.6606 84.984C37.3166 83.8 38.2926 82.8 39.5886 81.984C40.9006 81.168 42.5326 80.672 44.4846 80.496V73.272H47.7246ZM47.7246 98.928V110.88C50.9726 110.224 52.5966 108.248 52.5966 104.952C52.5966 103.608 52.2366 102.456 51.5166 101.496C50.8126 100.536 49.5486 99.68 47.7246 98.928ZM44.4846 83.928C43.1726 84.152 42.0926 84.656 41.2446 85.44C40.4126 86.208 39.9966 87.264 39.9966 88.608C39.9966 89.728 40.3006 90.68 40.9086 91.464C41.5326 92.248 42.7246 93 44.4846 93.72V83.928Z" fill="#00FFC2"/>
<path d="M106.319 88.728V110.808H113.447V114H94.4871V110.808H102.287V91.92H94.7271V88.728H106.319ZM103.103 76.896C103.999 76.896 104.711 77.168 105.239 77.712C105.783 78.256 106.055 78.92 106.055 79.704C106.055 80.52 105.783 81.208 105.239 81.768C104.711 82.312 103.999 82.584 103.103 82.584C102.255 82.584 101.559 82.312 101.015 81.768C100.471 81.208 100.199 80.52 100.199 79.704C100.199 78.92 100.471 78.256 101.015 77.712C101.559 77.168 102.255 76.896 103.103 76.896ZM122.308 114V88.728H125.74L126.052 92.232C127.076 90.936 128.356 89.944 129.892 89.256C131.444 88.552 132.948 88.2 134.404 88.2C136.884 88.2 138.684 88.856 139.804 90.168C140.94 91.48 141.508 93.304 141.508 95.64V114H137.476V98.616C137.476 96.888 137.38 95.496 137.188 94.44C136.996 93.368 136.596 92.592 135.988 92.112C135.38 91.616 134.436 91.368 133.156 91.368C132.164 91.368 131.228 91.584 130.348 92.016C129.484 92.448 128.708 92.992 128.02 93.648C127.348 94.288 126.788 94.936 126.34 95.592V114H122.308ZM163.882 88.728V110.808H171.01V114H152.05V110.808H159.85V91.92H152.29V88.728H163.882ZM160.666 76.896C161.562 76.896 162.274 77.168 162.802 77.712C163.346 78.256 163.618 78.92 163.618 79.704C163.618 80.52 163.346 81.208 162.802 81.768C162.274 82.312 161.562 82.584 160.666 82.584C159.818 82.584 159.122 82.312 158.578 81.768C158.034 81.208 157.762 80.52 157.762 79.704C157.762 78.92 158.034 78.256 158.578 77.712C159.122 77.168 159.818 76.896 160.666 76.896ZM199.935 112.728C199.071 113.304 198.023 113.752 196.791 114.072C195.559 114.392 194.351 114.552 193.167 114.552C190.447 114.552 188.351 113.84 186.879 112.416C185.407 110.992 184.671 109.16 184.671 106.92V91.848H178.863V88.728H184.671V82.992L188.703 82.512V88.728H197.439L196.959 91.848H188.703V106.872C188.703 108.28 189.071 109.352 189.807 110.088C190.559 110.824 191.799 111.192 193.527 111.192C194.471 111.192 195.343 111.08 196.143 110.856C196.943 110.632 197.687 110.344 198.375 109.992L199.935 112.728ZM237.433 114V88.728H240.865L241.177 92.232C242.201 90.936 243.481 89.944 245.017 89.256C246.569 88.552 248.073 88.2 249.529 88.2C252.009 88.2 253.809 88.856 254.929 90.168C256.065 91.48 256.633 93.304 256.633 95.64V114H252.601V98.616C252.601 96.888 252.505 95.496 252.313 94.44C252.121 93.368 251.721 92.592 251.113 92.112C250.505 91.616 249.561 91.368 248.281 91.368C247.289 91.368 246.353 91.584 245.473 92.016C244.609 92.448 243.833 92.992 243.145 93.648C242.473 94.288 241.913 94.936 241.465 95.592V114H237.433ZM269.383 102.792C269.463 104.744 269.839 106.344 270.511 107.592C271.183 108.824 272.071 109.736 273.175 110.328C274.279 110.904 275.479 111.192 276.775 111.192C278.071 111.192 279.239 111 280.279 110.616C281.335 110.232 282.415 109.664 283.519 108.912L285.415 111.576C284.231 112.504 282.879 113.232 281.359 113.76C279.855 114.288 278.311 114.552 276.727 114.552C274.279 114.552 272.191 114 270.463 112.896C268.735 111.792 267.415 110.256 266.503 108.288C265.607 106.304 265.159 104.008 265.159 101.4C265.159 98.84 265.615 96.568 266.527 94.584C267.439 92.6 268.719 91.04 270.367 89.904C272.015 88.768 273.959 88.2 276.199 88.2C278.327 88.2 280.159 88.704 281.695 89.712C283.231 90.704 284.407 92.128 285.223 93.984C286.055 95.824 286.471 98.024 286.471 100.584C286.471 101.016 286.463 101.424 286.447 101.808C286.431 102.176 286.407 102.504 286.375 102.792H269.383ZM276.247 91.512C274.375 91.512 272.807 92.176 271.543 93.504C270.295 94.832 269.583 96.888 269.407 99.672H282.583C282.535 96.968 281.943 94.936 280.807 93.576C279.671 92.2 278.151 91.512 276.247 91.512ZM313.716 114H308.004L304.74 95.448L301.188 114H295.62L291.012 88.728H295.14L298.356 111.504L302.388 91.944H307.164L310.98 111.504L314.196 88.728H318.132L313.716 114ZM332.369 111.216C334.305 111.216 335.833 110.856 336.953 110.136C338.089 109.4 338.657 108.424 338.657 107.208C338.657 106.44 338.513 105.776 338.225 105.216C337.953 104.656 337.385 104.152 336.521 103.704C335.657 103.256 334.329 102.808 332.537 102.36C330.793 101.928 329.273 101.432 327.977 100.872C326.697 100.296 325.697 99.552 324.977 98.64C324.273 97.728 323.921 96.544 323.921 95.088C323.921 93.664 324.321 92.44 325.121 91.416C325.937 90.376 327.065 89.584 328.505 89.04C329.945 88.48 331.617 88.2 333.521 88.2C335.553 88.2 337.321 88.472 338.825 89.016C340.345 89.544 341.633 90.2 342.689 90.984L340.913 93.72C339.953 93.064 338.897 92.528 337.745 92.112C336.593 91.68 335.201 91.464 333.569 91.464C331.585 91.464 330.177 91.776 329.345 92.4C328.513 93.008 328.097 93.8 328.097 94.776C328.097 95.512 328.297 96.128 328.697 96.624C329.113 97.104 329.809 97.544 330.785 97.944C331.761 98.328 333.105 98.752 334.817 99.216C336.465 99.648 337.897 100.168 339.113 100.776C340.345 101.384 341.305 102.184 341.993 103.176C342.681 104.168 343.025 105.448 343.025 107.016C343.025 108.808 342.513 110.264 341.489 111.384C340.465 112.488 339.137 113.296 337.505 113.808C335.889 114.304 334.177 114.552 332.369 114.552C330.081 114.552 328.129 114.224 326.513 113.568C324.913 112.896 323.569 112.088 322.481 111.144L324.785 108.48C325.777 109.296 326.913 109.96 328.193 110.472C329.489 110.968 330.881 111.216 332.369 111.216ZM372.622 112.728C371.758 113.304 370.71 113.752 369.478 114.072C368.246 114.392 367.038 114.552 365.854 114.552C363.134 114.552 361.038 113.84 359.566 112.416C358.094 110.992 357.358 109.16 357.358 106.92V91.848H351.55V88.728H357.358V82.992L361.39 82.512V88.728H370.126L369.646 91.848H361.39V106.872C361.39 108.28 361.758 109.352 362.494 110.088C363.246 110.824 364.486 111.192 366.214 111.192C367.158 111.192 368.03 111.08 368.83 110.856C369.63 110.632 370.374 110.344 371.062 109.992L372.622 112.728ZM399.436 108.48C399.436 109.488 399.604 110.224 399.94 110.688C400.276 111.152 400.796 111.496 401.5 111.72L400.516 114.552C399.428 114.408 398.476 114.064 397.66 113.52C396.844 112.96 396.252 112.12 395.884 111C394.972 112.168 393.836 113.056 392.476 113.664C391.116 114.256 389.612 114.552 387.964 114.552C385.436 114.552 383.444 113.84 381.988 112.416C380.532 110.992 379.804 109.104 379.804 106.752C379.804 104.144 380.82 102.144 382.852 100.752C384.884 99.36 387.82 98.664 391.66 98.664H395.38V96.552C395.38 94.728 394.844 93.44 393.772 92.688C392.716 91.92 391.244 91.536 389.356 91.536C388.524 91.536 387.548 91.64 386.428 91.848C385.308 92.04 384.092 92.368 382.78 92.832L381.724 89.784C383.276 89.208 384.732 88.8 386.092 88.56C387.452 88.32 388.748 88.2 389.98 88.2C393.132 88.2 395.492 88.936 397.06 90.408C398.644 91.864 399.436 93.848 399.436 96.36V108.48ZM388.996 111.48C390.244 111.48 391.436 111.168 392.572 110.544C393.708 109.904 394.644 109.024 395.38 107.904V101.4H391.732C388.948 101.4 386.98 101.88 385.828 102.84C384.692 103.8 384.124 105.088 384.124 106.704C384.124 108.272 384.524 109.464 385.324 110.28C386.14 111.08 387.364 111.48 388.996 111.48ZM421.545 111.072C422.809 111.072 423.985 110.864 425.073 110.448C426.177 110.032 427.193 109.504 428.121 108.864L430.089 111.504C428.985 112.448 427.657 113.192 426.105 113.736C424.553 114.28 423.033 114.552 421.545 114.552C419.033 114.552 416.889 114.016 415.113 112.944C413.353 111.856 412.009 110.336 411.081 108.384C410.153 106.416 409.689 104.112 409.689 101.472C409.689 98.944 410.153 96.68 411.081 94.68C412.025 92.664 413.377 91.08 415.137 89.928C416.913 88.776 419.065 88.2 421.593 88.2C423.209 88.2 424.721 88.448 426.129 88.944C427.553 89.424 428.857 90.152 430.041 91.128L428.073 93.816C427.001 93.064 425.921 92.504 424.833 92.136C423.761 91.752 422.665 91.56 421.545 91.56C419.369 91.56 417.577 92.376 416.169 94.008C414.761 95.64 414.057 98.128 414.057 101.472C414.057 103.712 414.377 105.544 415.017 106.968C415.673 108.376 416.561 109.416 417.681 110.088C418.817 110.744 420.105 111.072 421.545 111.072ZM460.07 88.728L448.694 100.104L461.39 114H456.086L443.654 100.2L454.838 88.728H460.07ZM443.198 78.048V114H439.166V78.552L443.198 78.048Z" fill="white"/>
<path d="M47.9903 176.272V183.496C49.9103 183.704 51.6143 184.168 53.1023 184.888C54.5903 185.608 55.8303 186.432 56.8223 187.36L54.3503 189.904C53.4223 189.04 52.4303 188.352 51.3743 187.84C50.3183 187.312 49.1903 186.976 47.9903 186.832V197.776C49.6063 198.304 51.1103 198.984 52.5023 199.816C53.9103 200.648 55.0463 201.712 55.9103 203.008C56.7743 204.304 57.2063 205.936 57.2063 207.904C57.2063 209.424 56.8623 210.856 56.1743 212.2C55.4863 213.528 54.4543 214.656 53.0783 215.584C51.7183 216.496 50.0223 217.088 47.9903 217.36V224.344H44.7503V217.504C42.4783 217.36 40.5023 216.832 38.8223 215.92C37.1583 215.008 35.7903 214.032 34.7183 212.992L37.1183 210.328C38.1263 211.352 39.2543 212.208 40.5023 212.896C41.7663 213.568 43.1823 213.968 44.7503 214.096V200.8C41.9503 199.872 39.7823 198.68 38.2463 197.224C36.7263 195.752 35.9663 193.904 35.9663 191.68C35.9663 190.384 36.2863 189.152 36.9263 187.984C37.5823 186.8 38.5583 185.8 39.8543 184.984C41.1663 184.168 42.7983 183.672 44.7503 183.496V176.272H47.9903ZM47.9903 201.928V213.88C51.2383 213.224 52.8623 211.248 52.8623 207.952C52.8623 206.608 52.5023 205.456 51.7823 204.496C51.0783 203.536 49.8143 202.68 47.9903 201.928ZM44.7503 186.928C43.4383 187.152 42.3583 187.656 41.5103 188.44C40.6783 189.208 40.2623 190.264 40.2623 191.608C40.2623 192.728 40.5663 193.68 41.1743 194.464C41.7983 195.248 42.9903 196 44.7503 196.72V186.928Z" fill="#00FFC2"/>
<path d="M93.7928 217V191.728H97.2248L97.5368 195.232C98.5608 193.936 99.8408 192.944 101.377 192.256C102.929 191.552 104.433 191.2 105.889 191.2C108.369 191.2 110.169 191.856 111.289 193.168C112.425 194.48 112.993 196.304 112.993 198.64V217H108.961V201.616C108.961 199.888 108.865 198.496 108.673 197.44C108.481 196.368 108.081 195.592 107.473 195.112C106.865 194.616 105.921 194.368 104.641 194.368C103.649 194.368 102.713 194.584 101.833 195.016C100.969 195.448 100.193 195.992 99.5048 196.648C98.8328 197.288 98.2728 197.936 97.8248 198.592V217H93.7928ZM125.742 205.792C125.822 207.744 126.198 209.344 126.87 210.592C127.542 211.824 128.43 212.736 129.534 213.328C130.638 213.904 131.838 214.192 133.134 214.192C134.43 214.192 135.598 214 136.638 213.616C137.694 213.232 138.774 212.664 139.878 211.912L141.774 214.576C140.59 215.504 139.238 216.232 137.718 216.76C136.214 217.288 134.67 217.552 133.086 217.552C130.638 217.552 128.55 217 126.822 215.896C125.094 214.792 123.774 213.256 122.862 211.288C121.966 209.304 121.518 207.008 121.518 204.4C121.518 201.84 121.974 199.568 122.886 197.584C123.798 195.6 125.078 194.04 126.726 192.904C128.374 191.768 130.318 191.2 132.558 191.2C134.686 191.2 136.518 191.704 138.054 192.712C139.59 193.704 140.766 195.128 141.582 196.984C142.414 198.824 142.83 201.024 142.83 203.584C142.83 204.016 142.822 204.424 142.806 204.808C142.79 205.176 142.766 205.504 142.734 205.792H125.742ZM132.606 194.512C130.734 194.512 129.166 195.176 127.902 196.504C126.654 197.832 125.942 199.888 125.766 202.672H138.942C138.894 199.968 138.302 197.936 137.166 196.576C136.03 195.2 134.51 194.512 132.606 194.512ZM170.075 217H164.363L161.099 198.448L157.547 217H151.979L147.371 191.728H151.499L154.715 214.504L158.747 194.944H163.523L167.339 214.504L170.555 191.728H174.491L170.075 217ZM188.729 214.216C190.665 214.216 192.193 213.856 193.313 213.136C194.449 212.4 195.017 211.424 195.017 210.208C195.017 209.44 194.873 208.776 194.585 208.216C194.313 207.656 193.745 207.152 192.881 206.704C192.017 206.256 190.689 205.808 188.897 205.36C187.153 204.928 185.633 204.432 184.337 203.872C183.057 203.296 182.057 202.552 181.337 201.64C180.633 200.728 180.281 199.544 180.281 198.088C180.281 196.664 180.681 195.44 181.48 194.416C182.297 193.376 183.425 192.584 184.865 192.04C186.305 191.48 187.977 191.2 189.881 191.2C191.913 191.2 193.681 191.472 195.185 192.016C196.705 192.544 197.993 193.2 199.049 193.984L197.273 196.72C196.313 196.064 195.257 195.528 194.105 195.112C192.953 194.68 191.561 194.464 189.929 194.464C187.945 194.464 186.537 194.776 185.705 195.4C184.873 196.008 184.457 196.8 184.457 197.776C184.457 198.512 184.657 199.128 185.057 199.624C185.473 200.104 186.169 200.544 187.145 200.944C188.121 201.328 189.465 201.752 191.177 202.216C192.825 202.648 194.257 203.168 195.473 203.776C196.705 204.384 197.665 205.184 198.353 206.176C199.041 207.168 199.385 208.448 199.385 210.016C199.385 211.808 198.873 213.264 197.849 214.384C196.825 215.488 195.497 216.296 193.865 216.808C192.249 217.304 190.537 217.552 188.729 217.552C186.441 217.552 184.489 217.224 182.873 216.568C181.273 215.896 179.929 215.088 178.84 214.144L181.145 211.48C182.137 212.296 183.273 212.96 184.553 213.472C185.849 213.968 187.241 214.216 188.729 214.216ZM228.982 215.728C228.118 216.304 227.07 216.752 225.838 217.072C224.606 217.392 223.398 217.552 222.214 217.552C219.494 217.552 217.398 216.84 215.926 215.416C214.454 213.992 213.718 212.16 213.718 209.92V194.848H207.91V191.728H213.718V185.992L217.75 185.512V191.728H226.486L226.006 194.848H217.75V209.872C217.75 211.28 218.118 212.352 218.854 213.088C219.606 213.824 220.846 214.192 222.574 214.192C223.518 214.192 224.39 214.08 225.19 213.856C225.99 213.632 226.734 213.344 227.422 212.992L228.982 215.728ZM255.795 211.48C255.795 212.488 255.963 213.224 256.299 213.688C256.635 214.152 257.155 214.496 257.859 214.72L256.875 217.552C255.787 217.408 254.835 217.064 254.019 216.52C253.203 215.96 252.611 215.12 252.243 214C251.331 215.168 250.195 216.056 248.835 216.664C247.475 217.256 245.971 217.552 244.323 217.552C241.795 217.552 239.803 216.84 238.347 215.416C236.891 213.992 236.163 212.104 236.163 209.752C236.163 207.144 237.179 205.144 239.211 203.752C241.243 202.36 244.179 201.664 248.019 201.664H251.739V199.552C251.739 197.728 251.203 196.44 250.131 195.688C249.075 194.92 247.603 194.536 245.715 194.536C244.883 194.536 243.907 194.64 242.787 194.848C241.667 195.04 240.451 195.368 239.139 195.832L238.083 192.784C239.635 192.208 241.091 191.8 242.451 191.56C243.811 191.32 245.107 191.2 246.339 191.2C249.491 191.2 251.851 191.936 253.419 193.408C255.003 194.864 255.795 196.848 255.795 199.36V211.48ZM245.355 214.48C246.603 214.48 247.795 214.168 248.931 213.544C250.067 212.904 251.003 212.024 251.739 210.904V204.4H248.091C245.307 204.4 243.339 204.88 242.187 205.84C241.051 206.8 240.483 208.088 240.483 209.704C240.483 211.272 240.883 212.464 241.683 213.28C242.499 214.08 243.723 214.48 245.355 214.48ZM277.904 214.072C279.168 214.072 280.344 213.864 281.432 213.448C282.536 213.032 283.552 212.504 284.48 211.864L286.448 214.504C285.344 215.448 284.016 216.192 282.464 216.736C280.912 217.28 279.392 217.552 277.904 217.552C275.392 217.552 273.248 217.016 271.472 215.944C269.712 214.856 268.368 213.336 267.44 211.384C266.512 209.416 266.048 207.112 266.048 204.472C266.048 201.944 266.512 199.68 267.44 197.68C268.384 195.664 269.736 194.08 271.496 192.928C273.272 191.776 275.424 191.2 277.952 191.2C279.568 191.2 281.08 191.448 282.488 191.944C283.912 192.424 285.216 193.152 286.4 194.128L284.432 196.816C283.36 196.064 282.28 195.504 281.192 195.136C280.12 194.752 279.024 194.56 277.904 194.56C275.728 194.56 273.936 195.376 272.528 197.008C271.12 198.64 270.416 201.128 270.416 204.472C270.416 206.712 270.736 208.544 271.376 209.968C272.032 211.376 272.92 212.416 274.04 213.088C275.176 213.744 276.464 214.072 277.904 214.072ZM316.43 191.728L305.054 203.104L317.75 217H312.446L300.014 203.2L311.198 191.728H316.43ZM299.558 181.048V217H295.526V181.552L299.558 181.048ZM365.616 191.728V213.808H372.744V217H353.784V213.808H361.584V194.92H354.024V191.728H365.616ZM362.4 179.896C363.296 179.896 364.008 180.168 364.536 180.712C365.08 181.256 365.352 181.92 365.352 182.704C365.352 183.52 365.08 184.208 364.536 184.768C364.008 185.312 363.296 185.584 362.4 185.584C361.552 185.584 360.856 185.312 360.312 184.768C359.768 184.208 359.496 183.52 359.496 182.704C359.496 181.92 359.768 181.256 360.312 180.712C360.856 180.168 361.552 179.896 362.4 179.896ZM410.339 205.648V202.144H429.587V205.648H410.339ZM457.888 217H452.176L448.912 198.448L445.36 217H439.792L435.184 191.728H439.312L442.528 214.504L446.56 194.944H451.336L455.152 214.504L458.368 191.728H462.304L457.888 217ZM508.034 191.2C510.274 191.2 512.058 191.744 513.386 192.832C514.73 193.92 515.698 195.456 516.29 197.44C516.882 199.408 517.178 201.712 517.178 204.352C517.178 206.896 516.818 209.168 516.098 211.168C515.394 213.152 514.322 214.712 512.882 215.848C511.442 216.984 509.626 217.552 507.434 217.552C504.666 217.552 502.442 216.576 500.762 214.624V226.672L496.73 227.176V191.728H500.162L500.498 195.256C501.426 193.96 502.53 192.96 503.81 192.256C505.106 191.552 506.514 191.2 508.034 191.2ZM507.074 194.44C505.682 194.44 504.45 194.864 503.378 195.712C502.322 196.544 501.45 197.472 500.762 198.496V211.024C501.418 212 502.242 212.776 503.234 213.352C504.242 213.912 505.346 214.192 506.546 214.192C508.642 214.192 510.218 213.392 511.274 211.792C512.33 210.192 512.858 207.704 512.858 204.328C512.858 202.12 512.65 200.288 512.234 198.832C511.818 197.36 511.186 196.264 510.338 195.544C509.49 194.808 508.402 194.44 507.074 194.44ZM543.608 211.48C543.608 212.488 543.776 213.224 544.112 213.688C544.448 214.152 544.968 214.496 545.672 214.72L544.688 217.552C543.6 217.408 542.648 217.064 541.832 216.52C541.016 215.96 540.424 215.12 540.056 214C539.144 215.168 538.008 216.056 536.648 216.664C535.288 217.256 533.784 217.552 532.136 217.552C529.608 217.552 527.616 216.84 526.16 215.416C524.704 213.992 523.976 212.104 523.976 209.752C523.976 207.144 524.992 205.144 527.023 203.752C529.056 202.36 531.992 201.664 535.832 201.664H539.552V199.552C539.552 197.728 539.016 196.44 537.944 195.688C536.888 194.92 535.416 194.536 533.528 194.536C532.696 194.536 531.72 194.64 530.6 194.848C529.48 195.04 528.264 195.368 526.952 195.832L525.896 192.784C527.448 192.208 528.904 191.8 530.264 191.56C531.624 191.32 532.92 191.2 534.152 191.2C537.304 191.2 539.664 191.936 541.232 193.408C542.816 194.864 543.608 196.848 543.608 199.36V211.48ZM533.168 214.48C534.416 214.48 535.608 214.168 536.744 213.544C537.88 212.904 538.816 212.024 539.552 210.904V204.4H535.904C533.12 204.4 531.152 204.88 530 205.84C528.864 206.8 528.296 208.088 528.296 209.704C528.296 211.272 528.696 212.464 529.496 213.28C530.312 214.08 531.536 214.48 533.168 214.48ZM554.533 217V213.904H558.469V194.824H554.533V191.728H561.541L562.285 197.704C563.261 195.624 564.445 194.016 565.837 192.88C567.229 191.744 569.069 191.176 571.357 191.176C572.061 191.176 572.685 191.232 573.229 191.344C573.789 191.44 574.357 191.568 574.933 191.728L573.757 195.328C573.229 195.184 572.749 195.08 572.317 195.016C571.885 194.936 571.389 194.896 570.829 194.896C568.893 194.896 567.229 195.584 565.837 196.96C564.445 198.336 563.333 200.416 562.501 203.2V213.904H567.637V217H554.533ZM571.045 200.272V194.776L571.453 191.728H574.933L574.357 200.272H571.045ZM601.17 211.48C601.17 212.488 601.338 213.224 601.674 213.688C602.01 214.152 602.53 214.496 603.234 214.72L602.25 217.552C601.162 217.408 600.21 217.064 599.394 216.52C598.578 215.96 597.986 215.12 597.618 214C596.706 215.168 595.57 216.056 594.21 216.664C592.85 217.256 591.346 217.552 589.698 217.552C587.17 217.552 585.178 216.84 583.722 215.416C582.266 213.992 581.538 212.104 581.538 209.752C581.538 207.144 582.554 205.144 584.586 203.752C586.618 202.36 589.554 201.664 593.394 201.664H597.114V199.552C597.114 197.728 596.578 196.44 595.506 195.688C594.45 194.92 592.978 194.536 591.09 194.536C590.258 194.536 589.282 194.64 588.162 194.848C587.042 195.04 585.826 195.368 584.514 195.832L583.458 192.784C585.01 192.208 586.466 191.8 587.826 191.56C589.186 191.32 590.482 191.2 591.714 191.2C594.866 191.2 597.226 191.936 598.794 193.408C600.378 194.864 601.17 196.848 601.17 199.36V211.48ZM590.73 214.48C591.978 214.48 593.17 214.168 594.306 213.544C595.442 212.904 596.378 212.024 597.114 210.904V204.4H593.466C590.682 204.4 588.714 204.88 587.562 205.84C586.426 206.8 585.858 208.088 585.858 209.704C585.858 211.272 586.258 212.464 587.058 213.28C587.874 214.08 589.098 214.48 590.73 214.48ZM628.511 191.2C629.327 191.2 630.103 191.376 630.839 191.728C631.591 192.08 632.207 192.76 632.687 193.768C633.167 194.776 633.407 196.248 633.407 198.184V217H629.663V198.832C629.663 197.248 629.567 196.104 629.375 195.4C629.183 194.696 628.631 194.344 627.719 194.344C626.967 194.344 626.215 194.584 625.463 195.064C624.727 195.528 624.007 196.296 623.303 197.368V217H619.535V198.832C619.535 197.248 619.439 196.104 619.247 195.4C619.055 194.696 618.503 194.344 617.591 194.344C616.807 194.344 616.047 194.584 615.311 195.064C614.591 195.528 613.879 196.296 613.175 197.368V217H609.455V191.728H612.623L612.863 194.656C613.551 193.68 614.319 192.864 615.167 192.208C616.031 191.536 617.095 191.2 618.359 191.2C619.319 191.2 620.223 191.432 621.071 191.896C621.919 192.344 622.543 193.224 622.943 194.536C623.631 193.544 624.407 192.744 625.271 192.136C626.135 191.512 627.215 191.2 628.511 191.2ZM649.229 214.216C651.165 214.216 652.693 213.856 653.813 213.136C654.949 212.4 655.517 211.424 655.517 210.208C655.517 209.44 655.373 208.776 655.085 208.216C654.813 207.656 654.245 207.152 653.381 206.704C652.517 206.256 651.189 205.808 649.397 205.36C647.653 204.928 646.133 204.432 644.837 203.872C643.557 203.296 642.557 202.552 641.837 201.64C641.133 200.728 640.781 199.544 640.781 198.088C640.781 196.664 641.181 195.44 641.98 194.416C642.797 193.376 643.925 192.584 645.365 192.04C646.805 191.48 648.477 191.2 650.381 191.2C652.413 191.2 654.181 191.472 655.685 192.016C657.205 192.544 658.493 193.2 659.549 193.984L657.773 196.72C656.813 196.064 655.757 195.528 654.605 195.112C653.453 194.68 652.061 194.464 650.429 194.464C648.445 194.464 647.037 194.776 646.205 195.4C645.373 196.008 644.957 196.8 644.957 197.776C644.957 198.512 645.157 199.128 645.557 199.624C645.973 200.104 646.669 200.544 647.645 200.944C648.621 201.328 649.965 201.752 651.677 202.216C653.325 202.648 654.757 203.168 655.973 203.776C657.205 204.384 658.165 205.184 658.853 206.176C659.541 207.168 659.885 208.448 659.885 210.016C659.885 211.808 659.373 213.264 658.349 214.384C657.325 215.488 655.997 216.296 654.365 216.808C652.749 217.304 651.037 217.552 649.229 217.552C646.941 217.552 644.989 217.224 643.373 216.568C641.773 215.896 640.429 215.088 639.34 214.144L641.645 211.48C642.637 212.296 643.773 212.96 645.053 213.472C646.349 213.968 647.741 214.216 649.229 214.216Z" fill="white"/>
<path d="M50.0528 279.272V286.496C51.9728 286.704 53.6768 287.168 55.1648 287.888C56.6528 288.608 57.8928 289.432 58.8848 290.36L56.4128 292.904C55.4848 292.04 54.4928 291.352 53.4368 290.84C52.3808 290.312 51.2528 289.976 50.0528 289.832V300.776C51.6688 301.304 53.1728 301.984 54.5648 302.816C55.9728 303.648 57.1088 304.712 57.9728 306.008C58.8368 307.304 59.2688 308.936 59.2688 310.904C59.2688 312.424 58.9248 313.856 58.2368 315.2C57.5488 316.528 56.5168 317.656 55.1408 318.584C53.7808 319.496 52.0848 320.088 50.0528 320.36V327.344H46.8128V320.504C44.5408 320.36 42.5648 319.832 40.8848 318.92C39.2208 318.008 37.8528 317.032 36.7808 315.992L39.1808 313.328C40.1888 314.352 41.3168 315.208 42.5648 315.896C43.8288 316.568 45.2448 316.968 46.8128 317.096V303.8C44.0128 302.872 41.8448 301.68 40.3088 300.224C38.7888 298.752 38.0288 296.904 38.0288 294.68C38.0288 293.384 38.3488 292.152 38.9888 290.984C39.6448 289.8 40.6208 288.8 41.9168 287.984C43.2288 287.168 44.8608 286.672 46.8128 286.496V279.272H50.0528ZM50.0528 304.928V316.88C53.3008 316.224 54.9248 314.248 54.9248 310.952C54.9248 309.608 54.5648 308.456 53.8448 307.496C53.1408 306.536 51.8768 305.68 50.0528 304.928ZM46.8128 289.928C45.5008 290.152 44.4208 290.656 43.5728 291.44C42.7408 292.208 42.3248 293.264 42.3248 294.608C42.3248 295.728 42.6288 296.68 43.2368 297.464C43.8608 298.248 45.0528 299 46.8128 299.72V289.928Z" fill="#00FFC2"/>
<path d="M95.8553 320V294.728H99.2873L99.5993 298.232C100.623 296.936 101.903 295.944 103.439 295.256C104.991 294.552 106.495 294.2 107.951 294.2C110.431 294.2 112.231 294.856 113.351 296.168C114.487 297.48 115.055 299.304 115.055 301.64V320H111.023V304.616C111.023 302.888 110.927 301.496 110.735 300.44C110.543 299.368 110.143 298.592 109.535 298.112C108.927 297.616 107.983 297.368 106.703 297.368C105.711 297.368 104.775 297.584 103.895 298.016C103.031 298.448 102.255 298.992 101.567 299.648C100.895 300.288 100.335 300.936 99.8873 301.592V320H95.8553ZM135.941 294.2C138.181 294.2 139.965 294.744 141.293 295.832C142.637 296.92 143.605 298.456 144.197 300.44C144.789 302.408 145.085 304.712 145.085 307.352C145.085 309.896 144.725 312.168 144.005 314.168C143.301 316.152 142.229 317.712 140.789 318.848C139.349 319.984 137.533 320.552 135.341 320.552C132.573 320.552 130.349 319.576 128.669 317.624V329.672L124.637 330.176V294.728H128.069L128.405 298.256C129.333 296.96 130.437 295.96 131.717 295.256C133.013 294.552 134.421 294.2 135.941 294.2ZM134.981 297.44C133.589 297.44 132.357 297.864 131.285 298.712C130.229 299.544 129.357 300.472 128.669 301.496V314.024C129.325 315 130.149 315.776 131.141 316.352C132.149 316.912 133.253 317.192 134.453 317.192C136.549 317.192 138.125 316.392 139.181 314.792C140.237 313.192 140.765 310.704 140.765 307.328C140.765 305.12 140.557 303.288 140.141 301.832C139.725 300.36 139.093 299.264 138.245 298.544C137.397 297.808 136.309 297.44 134.981 297.44ZM170.074 294.2C170.89 294.2 171.666 294.376 172.402 294.728C173.154 295.08 173.77 295.76 174.25 296.768C174.73 297.776 174.97 299.248 174.97 301.184V320H171.226V301.832C171.226 300.248 171.13 299.104 170.938 298.4C170.746 297.696 170.194 297.344 169.282 297.344C168.53 297.344 167.778 297.584 167.026 298.064C166.29 298.528 165.57 299.296 164.866 300.368V320H161.098V301.832C161.098 300.248 161.002 299.104 160.81 298.4C160.618 297.696 160.066 297.344 159.154 297.344C158.37 297.344 157.61 297.584 156.874 298.064C156.154 298.528 155.442 299.296 154.738 300.368V320H151.018V294.728H154.186L154.426 297.656C155.114 296.68 155.882 295.864 156.73 295.208C157.594 294.536 158.658 294.2 159.922 294.2C160.882 294.2 161.786 294.432 162.634 294.896C163.482 295.344 164.106 296.224 164.506 297.536C165.194 296.544 165.97 295.744 166.834 295.136C167.698 294.512 168.778 294.2 170.074 294.2ZM211.22 320V316.904H215.156V297.824H211.22V294.728H218.228L218.972 300.704C219.948 298.624 221.132 297.016 222.524 295.88C223.916 294.744 225.756 294.176 228.044 294.176C228.748 294.176 229.372 294.232 229.916 294.344C230.476 294.44 231.044 294.568 231.62 294.728L230.444 298.328C229.916 298.184 229.436 298.08 229.004 298.016C228.572 297.936 228.076 297.896 227.516 297.896C225.58 297.896 223.916 298.584 222.524 299.96C221.132 301.336 220.02 303.416 219.188 306.2V316.904H224.324V320H211.22ZM227.732 303.272V297.776L228.14 294.728H231.62L231.044 303.272H227.732ZM243.794 294.728V312.632C243.794 314.296 244.138 315.496 244.826 316.232C245.514 316.968 246.586 317.336 248.042 317.336C249.434 317.336 250.746 316.944 251.978 316.16C253.226 315.36 254.194 314.416 254.882 313.328V294.728H258.914V320H255.482L255.146 316.592C254.154 317.872 252.93 318.856 251.474 319.544C250.018 320.216 248.546 320.552 247.057 320.552C244.61 320.552 242.778 319.904 241.562 318.608C240.362 317.296 239.762 315.464 239.762 313.112V294.728H243.794ZM268.543 320V294.728H271.975L272.287 298.232C273.311 296.936 274.591 295.944 276.127 295.256C277.679 294.552 279.183 294.2 280.639 294.2C283.119 294.2 284.919 294.856 286.039 296.168C287.175 297.48 287.743 299.304 287.743 301.64V320H283.711V304.616C283.711 302.888 283.615 301.496 283.423 300.44C283.231 299.368 282.831 298.592 282.223 298.112C281.615 297.616 280.671 297.368 279.391 297.368C278.399 297.368 277.463 297.584 276.583 298.016C275.719 298.448 274.943 298.992 274.255 299.648C273.583 300.288 273.023 300.936 272.575 301.592V320H268.543ZM341.225 284.048L345.257 284.552V320H341.729L341.345 316.664C340.401 318.008 339.313 318.992 338.081 319.616C336.865 320.24 335.561 320.552 334.169 320.552C331.977 320.552 330.169 320 328.745 318.896C327.321 317.792 326.265 316.256 325.577 314.288C324.889 312.304 324.545 310.008 324.545 307.4C324.545 304.872 324.937 302.616 325.721 300.632C326.505 298.632 327.633 297.064 329.105 295.928C330.593 294.776 332.377 294.2 334.457 294.2C335.913 294.2 337.193 294.456 338.297 294.968C339.401 295.464 340.377 296.2 341.225 297.176V284.048ZM335.513 297.44C333.401 297.44 331.777 298.264 330.641 299.912C329.505 301.56 328.937 304.056 328.937 307.4C328.937 309.576 329.169 311.4 329.633 312.872C330.097 314.344 330.777 315.448 331.673 316.184C332.585 316.92 333.697 317.288 335.009 317.288C336.449 317.288 337.673 316.88 338.681 316.064C339.705 315.248 340.553 314.328 341.225 313.304V300.68C340.537 299.656 339.705 298.864 338.729 298.304C337.753 297.728 336.681 297.44 335.513 297.44ZM358.055 308.792C358.135 310.744 358.511 312.344 359.183 313.592C359.855 314.824 360.743 315.736 361.847 316.328C362.951 316.904 364.151 317.192 365.447 317.192C366.743 317.192 367.911 317 368.951 316.616C370.007 316.232 371.087 315.664 372.191 314.912L374.087 317.576C372.903 318.504 371.551 319.232 370.031 319.76C368.527 320.288 366.983 320.552 365.399 320.552C362.951 320.552 360.863 320 359.135 318.896C357.407 317.792 356.087 316.256 355.175 314.288C354.279 312.304 353.831 310.008 353.831 307.4C353.831 304.84 354.287 302.568 355.199 300.584C356.111 298.6 357.391 297.04 359.039 295.904C360.687 294.768 362.631 294.2 364.871 294.2C366.999 294.2 368.831 294.704 370.367 295.712C371.903 296.704 373.079 298.128 373.895 299.984C374.727 301.824 375.143 304.024 375.143 306.584C375.143 307.016 375.135 307.424 375.119 307.808C375.103 308.176 375.079 308.504 375.047 308.792H358.055ZM364.919 297.512C363.047 297.512 361.479 298.176 360.215 299.504C358.967 300.832 358.255 302.888 358.079 305.672H371.255C371.207 302.968 370.615 300.936 369.479 299.576C368.343 298.2 366.823 297.512 364.919 297.512ZM404.74 294.728L395.548 320H390.868L381.748 294.728H386.02L393.34 316.328L400.564 294.728H404.74ZM421.041 317.216C422.977 317.216 424.505 316.856 425.625 316.136C426.761 315.4 427.329 314.424 427.329 313.208C427.329 312.44 427.185 311.776 426.897 311.216C426.625 310.656 426.057 310.152 425.193 309.704C424.329 309.256 423.001 308.808 421.209 308.36C419.465 307.928 417.945 307.432 416.649 306.872C415.369 306.296 414.369 305.552 413.649 304.64C412.945 303.728 412.593 302.544 412.593 301.088C412.593 299.664 412.993 298.44 413.793 297.416C414.609 296.376 415.737 295.584 417.177 295.04C418.617 294.48 420.289 294.2 422.193 294.2C424.225 294.2 425.993 294.472 427.497 295.016C429.017 295.544 430.305 296.2 431.361 296.984L429.585 299.72C428.625 299.064 427.569 298.528 426.417 298.112C425.265 297.68 423.873 297.464 422.241 297.464C420.257 297.464 418.849 297.776 418.017 298.4C417.185 299.008 416.769 299.8 416.769 300.776C416.769 301.512 416.969 302.128 417.369 302.624C417.785 303.104 418.481 303.544 419.457 303.944C420.433 304.328 421.777 304.752 423.489 305.216C425.137 305.648 426.569 306.168 427.785 306.776C429.017 307.384 429.977 308.184 430.665 309.176C431.353 310.168 431.697 311.448 431.697 313.016C431.697 314.808 431.185 316.264 430.161 317.384C429.137 318.488 427.809 319.296 426.177 319.808C424.561 320.304 422.849 320.552 421.041 320.552C418.753 320.552 416.801 320.224 415.185 319.568C413.585 318.896 412.241 318.088 411.153 317.144L413.457 314.48C414.449 315.296 415.585 315.96 416.865 316.472C418.161 316.968 419.553 317.216 421.041 317.216ZM461.294 318.728C460.43 319.304 459.382 319.752 458.15 320.072C456.918 320.392 455.71 320.552 454.526 320.552C451.806 320.552 449.71 319.84 448.238 318.416C446.766 316.992 446.03 315.16 446.03 312.92V297.848H440.222V294.728H446.03V288.992L450.062 288.512V294.728H458.798L458.318 297.848H450.062V312.872C450.062 314.28 450.43 315.352 451.166 316.088C451.918 316.824 453.158 317.192 454.886 317.192C455.83 317.192 456.702 317.08 457.502 316.856C458.302 316.632 459.046 316.344 459.734 315.992L461.294 318.728ZM488.108 314.48C488.108 315.488 488.276 316.224 488.612 316.688C488.948 317.152 489.468 317.496 490.172 317.72L489.188 320.552C488.1 320.408 487.148 320.064 486.332 319.52C485.516 318.96 484.924 318.12 484.556 317C483.644 318.168 482.508 319.056 481.148 319.664C479.788 320.256 478.284 320.552 476.636 320.552C474.108 320.552 472.116 319.84 470.66 318.416C469.204 316.992 468.476 315.104 468.476 312.752C468.476 310.144 469.492 308.144 471.523 306.752C473.556 305.36 476.492 304.664 480.332 304.664H484.052V302.552C484.052 300.728 483.516 299.44 482.444 298.688C481.388 297.92 479.916 297.536 478.028 297.536C477.196 297.536 476.22 297.64 475.1 297.848C473.98 298.04 472.764 298.368 471.452 298.832L470.396 295.784C471.948 295.208 473.404 294.8 474.764 294.56C476.124 294.32 477.42 294.2 478.652 294.2C481.804 294.2 484.164 294.936 485.732 296.408C487.316 297.864 488.108 299.848 488.108 302.36V314.48ZM477.668 317.48C478.916 317.48 480.108 317.168 481.244 316.544C482.38 315.904 483.316 315.024 484.052 313.904V307.4H480.404C477.62 307.4 475.652 307.88 474.5 308.84C473.364 309.8 472.796 311.088 472.796 312.704C472.796 314.272 473.196 315.464 473.996 316.28C474.812 317.08 476.036 317.48 477.668 317.48ZM510.217 317.072C511.481 317.072 512.657 316.864 513.745 316.448C514.849 316.032 515.865 315.504 516.793 314.864L518.761 317.504C517.657 318.448 516.329 319.192 514.777 319.736C513.225 320.28 511.705 320.552 510.217 320.552C507.705 320.552 505.561 320.016 503.785 318.944C502.025 317.856 500.681 316.336 499.753 314.384C498.825 312.416 498.361 310.112 498.361 307.472C498.361 304.944 498.825 302.68 499.753 300.68C500.697 298.664 502.049 297.08 503.809 295.928C505.585 294.776 507.737 294.2 510.265 294.2C511.881 294.2 513.393 294.448 514.801 294.944C516.225 295.424 517.529 296.152 518.713 297.128L516.745 299.816C515.673 299.064 514.593 298.504 513.505 298.136C512.433 297.752 511.337 297.56 510.217 297.56C508.041 297.56 506.249 298.376 504.841 300.008C503.433 301.64 502.729 304.128 502.729 307.472C502.729 309.712 503.049 311.544 503.689 312.968C504.345 314.376 505.233 315.416 506.353 316.088C507.489 316.744 508.777 317.072 510.217 317.072ZM548.742 294.728L537.366 306.104L550.062 320H544.758L532.326 306.2L543.51 294.728H548.742ZM531.87 284.048V320H527.838V284.552L531.87 284.048Z" fill="white"/>
</svg>
