<svg width="30" height="30" viewBox="0 0 30 30" fill="none" xmlns="http://www.w3.org/2000/svg">
<path d="M28.8 0H1.2C0.53625 0 0 0.53625 0 1.2V28.8C0 29.4638 0.53625 30 1.2 30H28.8C29.4638 30 30 29.4638 30 28.8V1.2C30 0.53625 29.4638 0 28.8 0ZM22.2 15.9C22.2 16.065 22.065 16.2 21.9 16.2H16.2V21.9C16.2 22.065 16.065 22.2 15.9 22.2H14.1C13.935 22.2 13.8 22.065 13.8 21.9V16.2H8.1C7.935 16.2 7.8 16.065 7.8 15.9V14.1C7.8 13.935 7.935 13.8 8.1 13.8H13.8V8.1C13.8 7.935 13.935 7.8 14.1 7.8H15.9C16.065 7.8 16.2 7.935 16.2 8.1V13.8H21.9C22.065 13.8 22.2 13.935 22.2 14.1V15.9Z" fill="white"/>
</svg>
