<svg width="40" height="40" viewBox="0 0 40 40" fill="none" xmlns="http://www.w3.org/2000/svg">
<path d="M38.4 0H1.6C0.715 0 0 0.715 0 1.6V38.4C0 39.285 0.715 40 1.6 40H38.4C39.285 40 40 39.285 40 38.4V1.6C40 0.715 39.285 0 38.4 0ZM28.35 29.28C26.32 31.15 23.55 32.25 20.245 32.25C15.46 32.25 11.32 29.505 9.305 25.505C8.44645 23.797 7.99953 21.9117 8 20C8 18.02 8.475 16.15 9.305 14.495C11.32 10.49 15.46 7.745 20.245 7.745C23.545 7.745 26.315 8.96 28.44 10.935L24.93 14.45C23.66 13.235 22.045 12.62 20.25 12.62C17.06 12.62 14.36 14.775 13.395 17.67C13.15 18.405 13.01 19.19 13.01 20C13.01 20.81 13.15 21.595 13.395 22.33C14.36 25.225 17.06 27.38 20.245 27.38C21.895 27.38 23.295 26.945 24.39 26.21C25.69 25.34 26.55 24.045 26.835 22.51H20.245V17.77H31.78C31.925 18.575 32 19.41 32 20.275C32 24.01 30.665 27.145 28.35 29.28Z" fill="white"/>
</svg>
