<svg width="26" height="26" viewBox="0 0 26 26" fill="none" xmlns="http://www.w3.org/2000/svg">
<path d="M3.65588 5.37357L8.32639 10.0441C5.75251 12.9098 3.98137 16.4025 3.19424 20.1648C1.62569 18.0067 0.820215 15.3846 0.903742 12.7084C0.987268 10.0322 1.95509 7.45284 3.65588 5.37357ZM5.37355 3.6559C7.45283 1.9551 10.0322 0.987282 12.7084 0.903756C15.3846 0.820229 18.0067 1.62571 20.1648 3.19425C16.4025 3.98139 12.9098 5.75252 10.0441 8.3264L5.37355 3.6559ZM22.3433 20.6256L17.6728 15.9551C20.2466 13.0894 22.0178 9.59666 22.8049 5.83436C24.3735 7.99244 25.1789 10.6146 25.0954 13.2908C25.0119 15.967 24.0441 18.5463 22.3433 20.6256ZM20.6256 22.3433C18.5463 24.0441 15.9669 25.0119 13.2907 25.0954C10.6146 25.1789 7.99243 24.3735 5.83435 22.8049C9.59664 22.0178 13.0894 20.2466 15.9551 17.6728L20.6264 22.3441L20.6256 22.3433ZM10.0344 11.7521L14.247 15.9647C11.7883 18.1428 8.81924 19.6619 5.62047 20.3787C6.33723 17.1799 7.8564 14.2109 10.0344 11.7521ZM11.7521 10.0345C14.2109 7.85641 17.1799 6.33724 20.3787 5.62048C19.6619 8.81925 18.1427 11.7883 15.9647 14.247L11.7521 10.0345Z" fill="#00FFC2"/>
</svg>
