<svg width="26" height="26" viewBox="0 0 26 26" fill="none" xmlns="http://www.w3.org/2000/svg">
<path d="M3.62646 5.37366L8.29697 10.0442C5.72309 12.9099 3.95196 16.4026 3.16482 20.1649C1.59628 18.0068 0.790796 15.3847 0.874323 12.7085C0.957849 10.0323 1.92567 7.45293 3.62646 5.37366ZM5.34413 3.65599C7.42341 1.9552 10.0028 0.987374 12.679 0.903847C15.3552 0.820321 17.9773 1.6258 20.1354 3.19434C16.3731 3.98148 12.8804 5.75261 10.0146 8.3265L5.34413 3.65599ZM22.3138 20.6257L17.6433 15.9552C20.2172 13.0895 21.9884 9.59675 22.7755 5.83445C24.344 7.99254 25.1495 10.6147 25.066 13.2909C24.9825 15.967 24.0146 18.5464 22.3138 20.6257ZM20.5962 22.3434C18.5169 24.0442 15.9375 25.012 13.2613 25.0955C10.5851 25.179 7.96301 24.3736 5.80493 22.805C9.56723 22.0179 13.0599 20.2467 15.9257 17.6729L20.597 22.3442L20.5962 22.3434ZM10.005 11.7522L14.2176 15.9648C11.7588 18.1429 8.78982 19.662 5.59105 20.3788C6.30781 17.18 7.82698 14.211 10.005 11.7522ZM11.7227 10.0346C14.1815 7.8565 17.1505 6.33733 20.3493 5.62057C19.6325 8.81935 18.1133 11.7884 15.9353 14.2471L11.7227 10.0346Z" fill="white"/>
</svg>
