<svg width="40" height="40" viewBox="0 0 40 40" fill="none" xmlns="http://www.w3.org/2000/svg">
<path d="M5 0C3.67392 0 2.40215 0.526784 1.46447 1.46447C0.526784 2.40215 0 3.67392 0 5L0 35C0 36.3261 0.526784 37.5979 1.46447 38.5355C2.40215 39.4732 3.67392 40 5 40H35C36.3261 40 37.5979 39.4732 38.5355 38.5355C39.4732 37.5979 40 36.3261 40 35V5C40 3.67392 39.4732 2.40215 38.5355 1.46447C37.5979 0.526784 36.3261 0 35 0L5 0ZM8.75 6.25C22.5575 6.25 33.75 17.4425 33.75 31.25C33.75 31.913 33.4866 32.5489 33.0178 33.0178C32.5489 33.4866 31.913 33.75 31.25 33.75C30.587 33.75 29.9511 33.4866 29.4822 33.0178C29.0134 32.5489 28.75 31.913 28.75 31.25C28.75 25.9457 26.6429 20.8586 22.8921 17.1079C19.1414 13.3571 14.0543 11.25 8.75 11.25C8.08696 11.25 7.45107 10.9866 6.98223 10.5178C6.51339 10.0489 6.25 9.41304 6.25 8.75C6.25 8.08696 6.51339 7.45107 6.98223 6.98223C7.45107 6.51339 8.08696 6.25 8.75 6.25ZM8.75 16.25C12.7282 16.25 16.5436 17.8304 19.3566 20.6434C22.1696 23.4564 23.75 27.2718 23.75 31.25C23.75 31.913 23.4866 32.5489 23.0178 33.0178C22.5489 33.4866 21.913 33.75 21.25 33.75C20.587 33.75 19.9511 33.4866 19.4822 33.0178C19.0134 32.5489 18.75 31.913 18.75 31.25C18.75 28.5978 17.6964 26.0543 15.8211 24.1789C13.9457 22.3036 11.4022 21.25 8.75 21.25C8.08696 21.25 7.45107 20.9866 6.98223 20.5178C6.51339 20.0489 6.25 19.413 6.25 18.75C6.25 18.087 6.51339 17.4511 6.98223 16.9822C7.45107 16.5134 8.08696 16.25 8.75 16.25ZM10 33.75C9.00544 33.75 8.05161 33.3549 7.34835 32.6516C6.64509 31.9484 6.25 30.9946 6.25 30C6.25 29.0054 6.64509 28.0516 7.34835 27.3483C8.05161 26.6451 9.00544 26.25 10 26.25C10.9946 26.25 11.9484 26.6451 12.6517 27.3483C13.3549 28.0516 13.75 29.0054 13.75 30C13.75 30.9946 13.3549 31.9484 12.6517 32.6516C11.9484 33.3549 10.9946 33.75 10 33.75Z" fill="white"/>
</svg>
