<svg width="48" height="48" viewBox="0 0 48 48" fill="none" xmlns="http://www.w3.org/2000/svg">
<path fill-rule="evenodd" clip-rule="evenodd" d="M24 2C11.85 2 2 11.85 2 24C2 36.15 11.85 46 24 46C36.15 46 46 36.15 46 24C46 11.85 36.15 2 24 2ZM17.414 28.414C17.0368 28.7783 16.5316 28.9799 16.0072 28.9753C15.4828 28.9708 14.9812 28.7605 14.6104 28.3896C14.2395 28.0188 14.0292 27.5172 14.0247 26.9928C14.0201 26.4684 14.2217 25.9632 14.586 25.586L22.586 17.586C22.9611 17.2111 23.4697 17.0004 24 17.0004C24.5303 17.0004 25.0389 17.2111 25.414 17.586L33.414 25.586C33.7783 25.9632 33.9799 26.4684 33.9753 26.9928C33.9708 27.5172 33.7605 28.0188 33.3896 28.3896C33.0188 28.7605 32.5172 28.9708 31.9928 28.9753C31.4684 28.9799 30.9632 28.7783 30.586 28.414L24 21.828L17.414 28.414Z" fill="#222222"/>
</svg>
