<svg width="670" height="335" viewBox="0 0 670 335" fill="none" xmlns="http://www.w3.org/2000/svg">
<rect width="670" height="335" rx="15" fill="black"/>
<path d="M66.5435 46.454V51.872C67.9835 52.028 69.2615 52.376 70.3775 52.916C71.4935 53.456 72.4235 54.074 73.1675 54.77L71.3135 56.678C70.6175 56.03 69.8735 55.514 69.0815 55.13C68.2895 54.734 67.4435 54.482 66.5435 54.374V62.582C67.7555 62.978 68.8835 63.488 69.9275 64.112C70.9835 64.736 71.8355 65.534 72.4835 66.506C73.1315 67.478 73.4555 68.702 73.4555 70.178C73.4555 71.318 73.1975 72.392 72.6815 73.4C72.1655 74.396 71.3915 75.242 70.3595 75.938C69.3395 76.622 68.0675 77.066 66.5435 77.27V82.508H64.1135V77.378C62.4095 77.27 60.9275 76.874 59.6675 76.19C58.4195 75.506 57.3935 74.774 56.5895 73.994L58.3895 71.996C59.1455 72.764 59.9915 73.406 60.9275 73.922C61.8755 74.426 62.9375 74.726 64.1135 74.822V64.85C62.0135 64.154 60.3875 63.26 59.2355 62.168C58.0955 61.064 57.5255 59.678 57.5255 58.01C57.5255 57.038 57.7655 56.114 58.2455 55.238C58.7375 54.35 59.4695 53.6 60.4415 52.988C61.4255 52.376 62.6495 52.004 64.1135 51.872V46.454H66.5435ZM66.5435 65.696V74.66C68.9795 74.168 70.1975 72.686 70.1975 70.214C70.1975 69.206 69.9275 68.342 69.3875 67.622C68.8595 66.902 67.9115 66.26 66.5435 65.696ZM64.1135 54.446C63.1295 54.614 62.3195 54.992 61.6835 55.58C61.0595 56.156 60.7475 56.948 60.7475 57.956C60.7475 58.796 60.9755 59.51 61.4315 60.098C61.8995 60.686 62.7935 61.25 64.1135 61.79V54.446Z" fill="#00FFC2"/>
<path d="M110.489 58.046V74.606H115.835V77H101.615V74.606H107.465V60.44H101.795V58.046H110.489ZM108.077 49.172C108.749 49.172 109.283 49.376 109.679 49.784C110.087 50.192 110.291 50.69 110.291 51.278C110.291 51.89 110.087 52.406 109.679 52.826C109.283 53.234 108.749 53.438 108.077 53.438C107.441 53.438 106.919 53.234 106.511 52.826C106.103 52.406 105.899 51.89 105.899 51.278C105.899 50.69 106.103 50.192 106.511 49.784C106.919 49.376 107.441 49.172 108.077 49.172ZM122.481 77V58.046H125.055L125.289 60.674C126.057 59.702 127.017 58.958 128.169 58.442C129.333 57.914 130.461 57.65 131.553 57.65C133.413 57.65 134.763 58.142 135.603 59.126C136.455 60.11 136.881 61.478 136.881 63.23V77H133.857V65.462C133.857 64.166 133.785 63.122 133.641 62.33C133.497 61.526 133.197 60.944 132.741 60.584C132.285 60.212 131.577 60.026 130.617 60.026C129.873 60.026 129.171 60.188 128.511 60.512C127.863 60.836 127.281 61.244 126.765 61.736C126.261 62.216 125.841 62.702 125.505 63.194V77H122.481ZM153.661 58.046V74.606H159.007V77H144.787V74.606H150.637V60.44H144.967V58.046H153.661ZM151.249 49.172C151.921 49.172 152.455 49.376 152.851 49.784C153.259 50.192 153.463 50.69 153.463 51.278C153.463 51.89 153.259 52.406 152.851 52.826C152.455 53.234 151.921 53.438 151.249 53.438C150.613 53.438 150.091 53.234 149.683 52.826C149.275 52.406 149.071 51.89 149.071 51.278C149.071 50.69 149.275 50.192 149.683 49.784C150.091 49.376 150.613 49.172 151.249 49.172ZM180.701 76.046C180.053 76.478 179.267 76.814 178.343 77.054C177.419 77.294 176.513 77.414 175.625 77.414C173.585 77.414 172.013 76.88 170.909 75.812C169.805 74.744 169.253 73.37 169.253 71.69V60.386H164.897V58.046H169.253V53.744L172.277 53.384V58.046H178.829L178.469 60.386H172.277V71.654C172.277 72.71 172.553 73.514 173.105 74.066C173.669 74.618 174.599 74.894 175.895 74.894C176.603 74.894 177.257 74.81 177.857 74.642C178.457 74.474 179.015 74.258 179.531 73.994L180.701 76.046ZM208.825 77V58.046H211.399L211.633 60.674C212.401 59.702 213.361 58.958 214.513 58.442C215.677 57.914 216.805 57.65 217.897 57.65C219.757 57.65 221.107 58.142 221.947 59.126C222.799 60.11 223.225 61.478 223.225 63.23V77H220.201V65.462C220.201 64.166 220.129 63.122 219.985 62.33C219.841 61.526 219.541 60.944 219.085 60.584C218.629 60.212 217.921 60.026 216.961 60.026C216.217 60.026 215.515 60.188 214.855 60.512C214.207 60.836 213.625 61.244 213.109 61.736C212.605 62.216 212.185 62.702 211.849 63.194V77H208.825ZM232.787 68.594C232.847 70.058 233.129 71.258 233.633 72.194C234.137 73.118 234.803 73.802 235.631 74.246C236.459 74.678 237.359 74.894 238.331 74.894C239.303 74.894 240.179 74.75 240.959 74.462C241.751 74.174 242.561 73.748 243.389 73.184L244.811 75.182C243.923 75.878 242.909 76.424 241.769 76.82C240.641 77.216 239.483 77.414 238.295 77.414C236.459 77.414 234.893 77 233.597 76.172C232.301 75.344 231.311 74.192 230.627 72.716C229.955 71.228 229.619 69.506 229.619 67.55C229.619 65.63 229.961 63.926 230.645 62.438C231.329 60.95 232.289 59.78 233.525 58.928C234.761 58.076 236.219 57.65 237.899 57.65C239.495 57.65 240.869 58.028 242.021 58.784C243.173 59.528 244.055 60.596 244.667 61.988C245.291 63.368 245.603 65.018 245.603 66.938C245.603 67.262 245.597 67.568 245.585 67.856C245.573 68.132 245.555 68.378 245.531 68.594H232.787ZM237.935 60.134C236.531 60.134 235.355 60.632 234.407 61.628C233.471 62.624 232.937 64.166 232.805 66.254H242.687C242.651 64.226 242.207 62.702 241.355 61.682C240.503 60.65 239.363 60.134 237.935 60.134ZM266.037 77H261.753L259.305 63.086L256.641 77H252.465L249.009 58.046H252.105L254.517 75.128L257.541 60.458H261.123L263.985 75.128L266.397 58.046H269.349L266.037 77ZM280.027 74.912C281.479 74.912 282.625 74.642 283.465 74.102C284.317 73.55 284.743 72.818 284.743 71.906C284.743 71.33 284.635 70.832 284.419 70.412C284.215 69.992 283.789 69.614 283.141 69.278C282.493 68.942 281.497 68.606 280.153 68.27C278.845 67.946 277.705 67.574 276.733 67.154C275.773 66.722 275.023 66.164 274.483 65.48C273.955 64.796 273.691 63.908 273.691 62.816C273.691 61.748 273.991 60.83 274.591 60.062C275.203 59.282 276.049 58.688 277.129 58.28C278.209 57.86 279.463 57.65 280.891 57.65C282.415 57.65 283.741 57.854 284.869 58.262C286.009 58.658 286.975 59.15 287.767 59.738L286.435 61.79C285.715 61.298 284.923 60.896 284.059 60.584C283.195 60.26 282.151 60.098 280.927 60.098C279.439 60.098 278.383 60.332 277.759 60.8C277.135 61.256 276.823 61.85 276.823 62.582C276.823 63.134 276.973 63.596 277.273 63.968C277.585 64.328 278.107 64.658 278.839 64.958C279.571 65.246 280.579 65.564 281.863 65.912C283.099 66.236 284.173 66.626 285.085 67.082C286.009 67.538 286.729 68.138 287.245 68.882C287.761 69.626 288.019 70.586 288.019 71.762C288.019 73.106 287.635 74.198 286.867 75.038C286.099 75.866 285.103 76.472 283.879 76.856C282.667 77.228 281.383 77.414 280.027 77.414C278.311 77.414 276.847 77.168 275.635 76.676C274.435 76.172 273.427 75.566 272.611 74.858L274.339 72.86C275.083 73.472 275.935 73.97 276.895 74.354C277.867 74.726 278.911 74.912 280.027 74.912ZM310.217 76.046C309.569 76.478 308.783 76.814 307.859 77.054C306.935 77.294 306.029 77.414 305.141 77.414C303.101 77.414 301.529 76.88 300.425 75.812C299.321 74.744 298.769 73.37 298.769 71.69V60.386H294.413V58.046H298.769V53.744L301.793 53.384V58.046H308.345L307.985 60.386H301.793V71.654C301.793 72.71 302.069 73.514 302.621 74.066C303.185 74.618 304.115 74.894 305.411 74.894C306.119 74.894 306.773 74.81 307.373 74.642C307.973 74.474 308.531 74.258 309.047 73.994L310.217 76.046ZM330.327 72.86C330.327 73.616 330.453 74.168 330.705 74.516C330.957 74.864 331.347 75.122 331.875 75.29L331.137 77.414C330.321 77.306 329.607 77.048 328.995 76.64C328.383 76.22 327.939 75.59 327.663 74.75C326.979 75.626 326.127 76.292 325.107 76.748C324.087 77.192 322.959 77.414 321.723 77.414C319.827 77.414 318.333 76.88 317.241 75.812C316.149 74.744 315.603 73.328 315.603 71.564C315.603 69.608 316.365 68.108 317.889 67.064C319.413 66.02 321.615 65.498 324.495 65.498H327.285V63.914C327.285 62.546 326.883 61.58 326.079 61.016C325.287 60.44 324.183 60.152 322.767 60.152C322.143 60.152 321.411 60.23 320.571 60.386C319.731 60.53 318.819 60.776 317.835 61.124L317.043 58.838C318.207 58.406 319.299 58.1 320.319 57.92C321.339 57.74 322.311 57.65 323.235 57.65C325.599 57.65 327.369 58.202 328.545 59.306C329.733 60.398 330.327 61.886 330.327 63.77V72.86ZM322.497 75.11C323.433 75.11 324.327 74.876 325.179 74.408C326.031 73.928 326.733 73.268 327.285 72.428V67.55H324.549C322.461 67.55 320.985 67.91 320.121 68.63C319.269 69.35 318.843 70.316 318.843 71.528C318.843 72.704 319.143 73.598 319.743 74.21C320.355 74.81 321.273 75.11 322.497 75.11ZM346.909 74.804C347.857 74.804 348.739 74.648 349.555 74.336C350.383 74.024 351.145 73.628 351.841 73.148L353.317 75.128C352.489 75.836 351.493 76.394 350.329 76.802C349.165 77.21 348.025 77.414 346.909 77.414C345.025 77.414 343.417 77.012 342.085 76.208C340.765 75.392 339.757 74.252 339.061 72.788C338.365 71.312 338.017 69.584 338.017 67.604C338.017 65.708 338.365 64.01 339.061 62.51C339.769 60.998 340.783 59.81 342.103 58.946C343.435 58.082 345.049 57.65 346.945 57.65C348.157 57.65 349.291 57.836 350.347 58.208C351.415 58.568 352.393 59.114 353.281 59.846L351.805 61.862C351.001 61.298 350.191 60.878 349.375 60.602C348.571 60.314 347.749 60.17 346.909 60.17C345.277 60.17 343.933 60.782 342.877 62.006C341.821 63.23 341.293 65.096 341.293 67.604C341.293 69.284 341.533 70.658 342.013 71.726C342.505 72.782 343.171 73.562 344.011 74.066C344.863 74.558 345.829 74.804 346.909 74.804ZM375.803 58.046L367.271 66.578L376.793 77H372.815L363.491 66.65L371.879 58.046H375.803ZM363.149 50.036V77H360.125V50.414L363.149 50.036Z" fill="white"/>
<path d="M66.4927 149.454V154.872C67.9327 155.028 69.2107 155.376 70.3267 155.916C71.4427 156.456 72.3727 157.074 73.1167 157.77L71.2627 159.678C70.5667 159.03 69.8227 158.514 69.0307 158.13C68.2387 157.734 67.3927 157.482 66.4927 157.374V165.582C67.7047 165.978 68.8327 166.488 69.8767 167.112C70.9327 167.736 71.7847 168.534 72.4327 169.506C73.0807 170.478 73.4047 171.702 73.4047 173.178C73.4047 174.318 73.1467 175.392 72.6307 176.4C72.1147 177.396 71.3407 178.242 70.3087 178.938C69.2887 179.622 68.0167 180.066 66.4927 180.27V185.508H64.0627V180.378C62.3587 180.27 60.8767 179.874 59.6167 179.19C58.3687 178.506 57.3427 177.774 56.5387 176.994L58.3387 174.996C59.0947 175.764 59.9407 176.406 60.8767 176.922C61.8247 177.426 62.8867 177.726 64.0627 177.822V167.85C61.9627 167.154 60.3367 166.26 59.1847 165.168C58.0447 164.064 57.4747 162.678 57.4747 161.01C57.4747 160.038 57.7147 159.114 58.1947 158.238C58.6867 157.35 59.4187 156.6 60.3907 155.988C61.3747 155.376 62.5987 155.004 64.0627 154.872V149.454H66.4927ZM66.4927 168.696V177.66C68.9287 177.168 70.1467 175.686 70.1467 173.214C70.1467 172.206 69.8767 171.342 69.3367 170.622C68.8087 169.902 67.8607 169.26 66.4927 168.696ZM64.0627 157.446C63.0787 157.614 62.2687 157.992 61.6327 158.58C61.0087 159.156 60.6967 159.948 60.6967 160.956C60.6967 161.796 60.9247 162.51 61.3807 163.098C61.8487 163.686 62.7427 164.25 64.0627 164.79V157.446Z" fill="#00FFC2"/>
<path d="M100.845 180V161.046H103.419L103.653 163.674C104.421 162.702 105.381 161.958 106.533 161.442C107.697 160.914 108.825 160.65 109.917 160.65C111.777 160.65 113.127 161.142 113.967 162.126C114.819 163.11 115.245 164.478 115.245 166.23V180H112.221V168.462C112.221 167.166 112.149 166.122 112.005 165.33C111.861 164.526 111.561 163.944 111.105 163.584C110.649 163.212 109.941 163.026 108.981 163.026C108.237 163.026 107.535 163.188 106.875 163.512C106.227 163.836 105.645 164.244 105.129 164.736C104.625 165.216 104.205 165.702 103.869 166.194V180H100.845ZM124.807 171.594C124.867 173.058 125.149 174.258 125.653 175.194C126.157 176.118 126.823 176.802 127.651 177.246C128.479 177.678 129.379 177.894 130.351 177.894C131.323 177.894 132.199 177.75 132.979 177.462C133.771 177.174 134.581 176.748 135.409 176.184L136.831 178.182C135.943 178.878 134.929 179.424 133.789 179.82C132.661 180.216 131.503 180.414 130.315 180.414C128.479 180.414 126.913 180 125.617 179.172C124.321 178.344 123.331 177.192 122.647 175.716C121.975 174.228 121.639 172.506 121.639 170.55C121.639 168.63 121.981 166.926 122.665 165.438C123.349 163.95 124.309 162.78 125.545 161.928C126.781 161.076 128.239 160.65 129.919 160.65C131.515 160.65 132.889 161.028 134.041 161.784C135.193 162.528 136.075 163.596 136.687 164.988C137.311 166.368 137.623 168.018 137.623 169.938C137.623 170.262 137.617 170.568 137.605 170.856C137.593 171.132 137.575 171.378 137.551 171.594H124.807ZM129.955 163.134C128.551 163.134 127.375 163.632 126.427 164.628C125.491 165.624 124.957 167.166 124.825 169.254H134.707C134.671 167.226 134.227 165.702 133.375 164.682C132.523 163.65 131.383 163.134 129.955 163.134ZM158.056 180H153.772L151.324 166.086L148.66 180H144.484L141.028 161.046H144.124L146.536 178.128L149.56 163.458H153.142L156.004 178.128L158.416 161.046H161.368L158.056 180ZM172.046 177.912C173.498 177.912 174.644 177.642 175.484 177.102C176.336 176.55 176.762 175.818 176.762 174.906C176.762 174.33 176.654 173.832 176.438 173.412C176.234 172.992 175.808 172.614 175.16 172.278C174.512 171.942 173.516 171.606 172.172 171.27C170.864 170.946 169.724 170.574 168.752 170.154C167.792 169.722 167.042 169.164 166.502 168.48C165.974 167.796 165.71 166.908 165.71 165.816C165.71 164.748 166.01 163.83 166.61 163.062C167.222 162.282 168.068 161.688 169.148 161.28C170.228 160.86 171.482 160.65 172.91 160.65C174.434 160.65 175.76 160.854 176.888 161.262C178.028 161.658 178.994 162.15 179.786 162.738L178.454 164.79C177.734 164.298 176.942 163.896 176.078 163.584C175.214 163.26 174.17 163.098 172.946 163.098C171.458 163.098 170.402 163.332 169.778 163.8C169.154 164.256 168.842 164.85 168.842 165.582C168.842 166.134 168.992 166.596 169.292 166.968C169.604 167.328 170.126 167.658 170.858 167.958C171.59 168.246 172.598 168.564 173.882 168.912C175.118 169.236 176.192 169.626 177.104 170.082C178.028 170.538 178.748 171.138 179.264 171.882C179.78 172.626 180.038 173.586 180.038 174.762C180.038 176.106 179.654 177.198 178.886 178.038C178.118 178.866 177.122 179.472 175.898 179.856C174.686 180.228 173.402 180.414 172.046 180.414C170.33 180.414 168.866 180.168 167.654 179.676C166.454 179.172 165.446 178.566 164.63 177.858L166.358 175.86C167.102 176.472 167.954 176.97 168.914 177.354C169.886 177.726 170.93 177.912 172.046 177.912ZM202.236 179.046C201.588 179.478 200.802 179.814 199.878 180.054C198.954 180.294 198.048 180.414 197.16 180.414C195.12 180.414 193.548 179.88 192.444 178.812C191.34 177.744 190.788 176.37 190.788 174.69V163.386H186.432V161.046H190.788V156.744L193.812 156.384V161.046H200.364L200.004 163.386H193.812V174.654C193.812 175.71 194.088 176.514 194.64 177.066C195.204 177.618 196.134 177.894 197.43 177.894C198.138 177.894 198.792 177.81 199.392 177.642C199.992 177.474 200.55 177.258 201.066 176.994L202.236 179.046ZM222.346 175.86C222.346 176.616 222.472 177.168 222.724 177.516C222.976 177.864 223.366 178.122 223.894 178.29L223.156 180.414C222.34 180.306 221.626 180.048 221.014 179.64C220.402 179.22 219.958 178.59 219.682 177.75C218.998 178.626 218.146 179.292 217.126 179.748C216.106 180.192 214.978 180.414 213.742 180.414C211.846 180.414 210.352 179.88 209.26 178.812C208.168 177.744 207.622 176.328 207.622 174.564C207.622 172.608 208.384 171.108 209.908 170.064C211.432 169.02 213.634 168.498 216.514 168.498H219.304V166.914C219.304 165.546 218.902 164.58 218.098 164.016C217.306 163.44 216.202 163.152 214.786 163.152C214.162 163.152 213.43 163.23 212.59 163.386C211.75 163.53 210.838 163.776 209.854 164.124L209.062 161.838C210.226 161.406 211.318 161.1 212.338 160.92C213.358 160.74 214.33 160.65 215.254 160.65C217.618 160.65 219.388 161.202 220.564 162.306C221.752 163.398 222.346 164.886 222.346 166.77V175.86ZM214.516 178.11C215.452 178.11 216.346 177.876 217.198 177.408C218.05 176.928 218.752 176.268 219.304 175.428V170.55H216.568C214.48 170.55 213.004 170.91 212.14 171.63C211.288 172.35 210.862 173.316 210.862 174.528C210.862 175.704 211.162 176.598 211.762 177.21C212.374 177.81 213.292 178.11 214.516 178.11ZM238.928 177.804C239.876 177.804 240.758 177.648 241.574 177.336C242.402 177.024 243.164 176.628 243.86 176.148L245.336 178.128C244.508 178.836 243.512 179.394 242.348 179.802C241.184 180.21 240.044 180.414 238.928 180.414C237.044 180.414 235.436 180.012 234.104 179.208C232.784 178.392 231.776 177.252 231.08 175.788C230.384 174.312 230.036 172.584 230.036 170.604C230.036 168.708 230.384 167.01 231.08 165.51C231.788 163.998 232.802 162.81 234.122 161.946C235.454 161.082 237.068 160.65 238.964 160.65C240.176 160.65 241.31 160.836 242.366 161.208C243.434 161.568 244.412 162.114 245.3 162.846L243.824 164.862C243.02 164.298 242.21 163.878 241.394 163.602C240.59 163.314 239.768 163.17 238.928 163.17C237.296 163.17 235.952 163.782 234.896 165.006C233.84 166.23 233.312 168.096 233.312 170.604C233.312 172.284 233.552 173.658 234.032 174.726C234.524 175.782 235.19 176.562 236.03 177.066C236.882 177.558 237.848 177.804 238.928 177.804ZM267.822 161.046L259.29 169.578L268.812 180H264.834L255.51 169.65L263.898 161.046H267.822ZM255.168 153.036V180H252.144V153.414L255.168 153.036ZM304.712 161.046V177.606H310.058V180H295.838V177.606H301.688V163.44H296.018V161.046H304.712ZM302.3 152.172C302.972 152.172 303.506 152.376 303.902 152.784C304.31 153.192 304.514 153.69 304.514 154.278C304.514 154.89 304.31 155.406 303.902 155.826C303.506 156.234 302.972 156.438 302.3 156.438C301.664 156.438 301.142 156.234 300.734 155.826C300.326 155.406 300.122 154.89 300.122 154.278C300.122 153.69 300.326 153.192 300.734 152.784C301.142 152.376 301.664 152.172 302.3 152.172ZM338.254 171.486V168.858H352.69V171.486H338.254ZM373.916 180H369.632L367.184 166.086L364.52 180H360.344L356.888 161.046H359.984L362.396 178.128L365.42 163.458H369.002L371.864 178.128L374.276 161.046H377.228L373.916 180ZM411.526 160.65C413.206 160.65 414.544 161.058 415.54 161.874C416.548 162.69 417.274 163.842 417.718 165.33C418.162 166.806 418.384 168.534 418.384 170.514C418.384 172.422 418.114 174.126 417.574 175.626C417.046 177.114 416.242 178.284 415.162 179.136C414.082 179.988 412.72 180.414 411.076 180.414C409 180.414 407.332 179.682 406.072 178.218V187.254L403.048 187.632V161.046H405.622L405.874 163.692C406.57 162.72 407.398 161.97 408.358 161.442C409.33 160.914 410.386 160.65 411.526 160.65ZM410.806 163.08C409.762 163.08 408.838 163.398 408.034 164.034C407.242 164.658 406.588 165.354 406.072 166.122V175.518C406.564 176.25 407.182 176.832 407.926 177.264C408.682 177.684 409.51 177.894 410.41 177.894C411.982 177.894 413.164 177.294 413.956 176.094C414.748 174.894 415.144 173.028 415.144 170.496C415.144 168.84 414.988 167.466 414.676 166.374C414.364 165.27 413.89 164.448 413.254 163.908C412.618 163.356 411.802 163.08 410.806 163.08ZM438.206 175.86C438.206 176.616 438.332 177.168 438.584 177.516C438.836 177.864 439.226 178.122 439.754 178.29L439.016 180.414C438.2 180.306 437.486 180.048 436.874 179.64C436.262 179.22 435.818 178.59 435.542 177.75C434.858 178.626 434.006 179.292 432.986 179.748C431.966 180.192 430.838 180.414 429.602 180.414C427.706 180.414 426.212 179.88 425.12 178.812C424.028 177.744 423.482 176.328 423.482 174.564C423.482 172.608 424.244 171.108 425.768 170.064C427.292 169.02 429.494 168.498 432.374 168.498H435.164V166.914C435.164 165.546 434.762 164.58 433.958 164.016C433.166 163.44 432.062 163.152 430.646 163.152C430.022 163.152 429.29 163.23 428.45 163.386C427.61 163.53 426.698 163.776 425.714 164.124L424.922 161.838C426.086 161.406 427.178 161.1 428.198 160.92C429.218 160.74 430.19 160.65 431.114 160.65C433.478 160.65 435.248 161.202 436.424 162.306C437.612 163.398 438.206 164.886 438.206 166.77V175.86ZM430.376 178.11C431.312 178.11 432.206 177.876 433.058 177.408C433.91 176.928 434.612 176.268 435.164 175.428V170.55H432.428C430.34 170.55 428.864 170.91 428 171.63C427.148 172.35 426.722 173.316 426.722 174.528C426.722 175.704 427.022 176.598 427.622 177.21C428.234 177.81 429.152 178.11 430.376 178.11ZM446.4 180V177.678H449.352V163.368H446.4V161.046H451.656L452.214 165.528C452.946 163.968 453.834 162.762 454.878 161.91C455.922 161.058 457.302 160.632 459.018 160.632C459.546 160.632 460.014 160.674 460.422 160.758C460.842 160.83 461.268 160.926 461.7 161.046L460.818 163.746C460.422 163.638 460.062 163.56 459.738 163.512C459.414 163.452 459.042 163.422 458.622 163.422C457.17 163.422 455.922 163.938 454.878 164.97C453.834 166.002 453 167.562 452.376 169.65V177.678H456.228V180H446.4ZM458.784 167.454V163.332L459.09 161.046H461.7L461.268 167.454H458.784ZM481.378 175.86C481.378 176.616 481.504 177.168 481.756 177.516C482.008 177.864 482.398 178.122 482.926 178.29L482.188 180.414C481.372 180.306 480.658 180.048 480.046 179.64C479.434 179.22 478.99 178.59 478.714 177.75C478.03 178.626 477.178 179.292 476.158 179.748C475.138 180.192 474.01 180.414 472.774 180.414C470.878 180.414 469.384 179.88 468.292 178.812C467.2 177.744 466.654 176.328 466.654 174.564C466.654 172.608 467.416 171.108 468.939 170.064C470.464 169.02 472.666 168.498 475.546 168.498H478.336V166.914C478.336 165.546 477.934 164.58 477.13 164.016C476.338 163.44 475.234 163.152 473.818 163.152C473.194 163.152 472.462 163.23 471.622 163.386C470.782 163.53 469.87 163.776 468.886 164.124L468.094 161.838C469.258 161.406 470.35 161.1 471.37 160.92C472.39 160.74 473.362 160.65 474.286 160.65C476.65 160.65 478.42 161.202 479.596 162.306C480.784 163.398 481.378 164.886 481.378 166.77V175.86ZM473.548 178.11C474.484 178.11 475.378 177.876 476.23 177.408C477.082 176.928 477.784 176.268 478.336 175.428V170.55H475.6C473.512 170.55 472.036 170.91 471.172 171.63C470.32 172.35 469.894 173.316 469.894 174.528C469.894 175.704 470.194 176.598 470.794 177.21C471.406 177.81 472.324 178.11 473.548 178.11ZM501.883 160.65C502.495 160.65 503.077 160.782 503.629 161.046C504.193 161.31 504.655 161.82 505.015 162.576C505.375 163.332 505.555 164.436 505.555 165.888V180H502.747V166.374C502.747 165.186 502.675 164.328 502.531 163.8C502.387 163.272 501.973 163.008 501.289 163.008C500.725 163.008 500.161 163.188 499.597 163.548C499.045 163.896 498.505 164.472 497.977 165.276V180H495.151V166.374C495.151 165.186 495.079 164.328 494.935 163.8C494.791 163.272 494.377 163.008 493.693 163.008C493.105 163.008 492.535 163.188 491.983 163.548C491.443 163.896 490.909 164.472 490.381 165.276V180H487.591V161.046H489.967L490.147 163.242C490.663 162.51 491.239 161.898 491.875 161.406C492.523 160.902 493.321 160.65 494.269 160.65C494.989 160.65 495.667 160.824 496.303 161.172C496.939 161.508 497.407 162.168 497.707 163.152C498.223 162.408 498.805 161.808 499.453 161.352C500.101 160.884 500.911 160.65 501.883 160.65ZM517.421 177.912C518.873 177.912 520.019 177.642 520.859 177.102C521.711 176.55 522.137 175.818 522.137 174.906C522.137 174.33 522.029 173.832 521.813 173.412C521.609 172.992 521.183 172.614 520.535 172.278C519.887 171.942 518.891 171.606 517.547 171.27C516.239 170.946 515.099 170.574 514.127 170.154C513.167 169.722 512.417 169.164 511.877 168.48C511.349 167.796 511.085 166.908 511.085 165.816C511.085 164.748 511.385 163.83 511.985 163.062C512.597 162.282 513.443 161.688 514.523 161.28C515.603 160.86 516.857 160.65 518.285 160.65C519.809 160.65 521.135 160.854 522.263 161.262C523.403 161.658 524.369 162.15 525.161 162.738L523.829 164.79C523.109 164.298 522.317 163.896 521.453 163.584C520.589 163.26 519.545 163.098 518.321 163.098C516.833 163.098 515.777 163.332 515.153 163.8C514.529 164.256 514.217 164.85 514.217 165.582C514.217 166.134 514.367 166.596 514.667 166.968C514.979 167.328 515.501 167.658 516.233 167.958C516.965 168.246 517.973 168.564 519.257 168.912C520.493 169.236 521.567 169.626 522.479 170.082C523.403 170.538 524.123 171.138 524.639 171.882C525.155 172.626 525.413 173.586 525.413 174.762C525.413 176.106 525.029 177.198 524.261 178.038C523.493 178.866 522.497 179.472 521.273 179.856C520.061 180.228 518.777 180.414 517.421 180.414C515.705 180.414 514.241 180.168 513.029 179.676C511.829 179.172 510.821 178.566 510.005 177.858L511.733 175.86C512.477 176.472 513.329 176.97 514.289 177.354C515.261 177.726 516.305 177.912 517.421 177.912Z" fill="white"/>
<path d="M66.5083 252.454V257.872C67.9483 258.028 69.2263 258.376 70.3423 258.916C71.4583 259.456 72.3883 260.074 73.1323 260.77L71.2783 262.678C70.5823 262.03 69.8383 261.514 69.0463 261.13C68.2543 260.734 67.4083 260.482 66.5083 260.374V268.582C67.7203 268.978 68.8483 269.488 69.8923 270.112C70.9483 270.736 71.8003 271.534 72.4483 272.506C73.0963 273.478 73.4203 274.702 73.4203 276.178C73.4203 277.318 73.1623 278.392 72.6463 279.4C72.1303 280.396 71.3563 281.242 70.3243 281.938C69.3043 282.622 68.0323 283.066 66.5083 283.27V288.508H64.0783V283.378C62.3743 283.27 60.8923 282.874 59.6323 282.19C58.3843 281.506 57.3583 280.774 56.5543 279.994L58.3543 277.996C59.1103 278.764 59.9563 279.406 60.8923 279.922C61.8403 280.426 62.9023 280.726 64.0783 280.822V270.85C61.9783 270.154 60.3523 269.26 59.2003 268.168C58.0603 267.064 57.4903 265.678 57.4903 264.01C57.4903 263.038 57.7303 262.114 58.2103 261.238C58.7023 260.35 59.4343 259.6 60.4063 258.988C61.3903 258.376 62.6143 258.004 64.0783 257.872V252.454H66.5083ZM66.5083 271.696V280.66C68.9443 280.168 70.1623 278.686 70.1623 276.214C70.1623 275.206 69.8923 274.342 69.3523 273.622C68.8243 272.902 67.8763 272.26 66.5083 271.696ZM64.0783 260.446C63.0943 260.614 62.2843 260.992 61.6483 261.58C61.0243 262.156 60.7123 262.948 60.7123 263.956C60.7123 264.796 60.9403 265.51 61.3963 266.098C61.8643 266.686 62.7583 267.25 64.0783 267.79V260.446Z" fill="#00FFC2"/>
<path d="M109.338 263.65C111.018 263.65 112.356 264.058 113.352 264.874C114.36 265.69 115.086 266.842 115.53 268.33C115.974 269.806 116.196 271.534 116.196 273.514C116.196 275.422 115.926 277.126 115.386 278.626C114.858 280.114 114.054 281.284 112.974 282.136C111.894 282.988 110.532 283.414 108.888 283.414C106.812 283.414 105.144 282.682 103.884 281.218V290.254L100.86 290.632V264.046H103.434L103.686 266.692C104.382 265.72 105.21 264.97 106.17 264.442C107.142 263.914 108.198 263.65 109.338 263.65ZM108.618 266.08C107.574 266.08 106.65 266.398 105.846 267.034C105.054 267.658 104.4 268.354 103.884 269.122V278.518C104.376 279.25 104.994 279.832 105.738 280.264C106.494 280.684 107.322 280.894 108.222 280.894C109.794 280.894 110.976 280.294 111.768 279.094C112.56 277.894 112.956 276.028 112.956 273.496C112.956 271.84 112.8 270.466 112.488 269.374C112.176 268.27 111.702 267.448 111.066 266.908C110.43 266.356 109.614 266.08 108.618 266.08ZM122.626 283V280.678H125.578V266.368H122.626V264.046H127.882L128.44 268.528C129.172 266.968 130.06 265.762 131.104 264.91C132.148 264.058 133.528 263.632 135.244 263.632C135.772 263.632 136.24 263.674 136.648 263.758C137.068 263.83 137.494 263.926 137.926 264.046L137.044 266.746C136.648 266.638 136.288 266.56 135.964 266.512C135.64 266.452 135.268 266.422 134.848 266.422C133.396 266.422 132.148 266.938 131.104 267.97C130.06 269.002 129.226 270.562 128.602 272.65V280.678H132.454V283H122.626ZM135.01 270.454V266.332L135.316 264.046H137.926L137.494 270.454H135.01ZM151.25 263.65C153.038 263.65 154.532 264.058 155.732 264.874C156.944 265.678 157.85 266.818 158.45 268.294C159.062 269.77 159.368 271.51 159.368 273.514C159.368 275.446 159.056 277.156 158.432 278.644C157.808 280.132 156.89 281.302 155.678 282.154C154.478 282.994 152.99 283.414 151.214 283.414C149.438 283.414 147.944 283.006 146.732 282.19C145.52 281.374 144.602 280.228 143.978 278.752C143.366 277.264 143.06 275.53 143.06 273.55C143.06 271.594 143.372 269.872 143.996 268.384C144.62 266.896 145.538 265.738 146.75 264.91C147.974 264.07 149.474 263.65 151.25 263.65ZM151.25 266.116C149.618 266.116 148.382 266.722 147.542 267.934C146.714 269.134 146.3 271.006 146.3 273.55C146.3 276.046 146.708 277.9 147.524 279.112C148.352 280.324 149.582 280.93 151.214 280.93C152.846 280.93 154.07 280.324 154.886 279.112C155.714 277.9 156.128 276.034 156.128 273.514C156.128 270.994 155.72 269.134 154.904 267.934C154.088 266.722 152.87 266.116 151.25 266.116ZM176.814 256.036C177.834 256.036 178.758 256.126 179.586 256.306C180.414 256.486 181.2 256.738 181.944 257.062L180.972 259.312C180.36 259.048 179.712 258.85 179.028 258.718C178.344 258.586 177.636 258.52 176.904 258.52C175.584 258.52 174.588 258.778 173.916 259.294C173.256 259.81 172.926 260.602 172.926 261.67V265.522H179.352L179.028 267.898H172.926V283H169.902V267.898H165.384V265.522H169.902V261.742C169.902 260.566 170.202 259.552 170.802 258.7C171.414 257.848 172.242 257.194 173.286 256.738C174.33 256.27 175.506 256.036 176.814 256.036ZM196.798 265.522V280.606H202.144V283H187.924V280.606H193.774V267.898H188.104V265.522H196.798ZM194.386 256.486C195.058 256.486 195.592 256.69 195.988 257.098C196.396 257.506 196.6 258.004 196.6 258.592C196.6 259.204 196.396 259.72 195.988 260.14C195.592 260.548 195.058 260.752 194.386 260.752C193.75 260.752 193.228 260.548 192.82 260.14C192.412 259.72 192.208 259.204 192.208 258.592C192.208 258.004 192.412 257.506 192.82 257.098C193.228 256.69 193.75 256.486 194.386 256.486ZM223.838 282.046C223.19 282.478 222.404 282.814 221.48 283.054C220.556 283.294 219.65 283.414 218.762 283.414C216.722 283.414 215.15 282.88 214.046 281.812C212.942 280.744 212.39 279.37 212.39 277.69V266.386H208.034V264.046H212.39V259.744L215.414 259.384V264.046H221.966L221.606 266.386H215.414V277.654C215.414 278.71 215.69 279.514 216.242 280.066C216.806 280.618 217.736 280.894 219.032 280.894C219.74 280.894 220.394 280.81 220.994 280.642C221.594 280.474 222.152 280.258 222.668 279.994L223.838 282.046ZM228.558 289.534V286.888H248.718V289.534H228.558ZM247.984 289.534V286.888H268.144V289.534H247.984Z" fill="white"/>
</svg>
