<svg width="100" height="100" viewBox="0 0 100 100" fill="none" xmlns="http://www.w3.org/2000/svg">
<circle cx="50" cy="50" r="50" fill="#222222"/>
<path d="M50 25C44.6976 25.0061 39.6142 27.0776 35.8648 30.76C32.1154 34.4425 30.0063 39.4351 30 44.6429C29.9937 48.8986 31.4091 53.0389 34.0291 56.4286C34.0291 56.4286 34.5746 57.1339 34.6637 57.2357L50 75L65.3436 57.2268C65.4236 57.1321 65.9709 56.4286 65.9709 56.4286L65.9727 56.4232C68.5914 53.035 70.0062 48.8967 70 44.6429C69.9937 39.4351 67.8846 34.4425 64.1352 30.76C60.3858 27.0776 55.3024 25.0061 50 25V25ZM50 51.7857C48.5616 51.7857 47.1555 51.3668 45.9595 50.5819C44.7635 49.7971 43.8313 48.6815 43.2809 47.3763C42.7304 46.0711 42.5864 44.6349 42.867 43.2494C43.1476 41.8638 43.8403 40.591 44.8574 39.5921C45.8745 38.5931 47.1704 37.9129 48.5812 37.6372C49.9919 37.3616 51.4542 37.5031 52.7831 38.0437C54.1121 38.5843 55.2479 39.4999 56.047 40.6745C56.8462 41.8491 57.2727 43.2301 57.2727 44.6429C57.2703 46.5365 56.5033 48.352 55.1399 49.691C53.7766 51.03 51.9281 51.7834 50 51.7857V51.7857Z" fill="#00FFC2"/>
</svg>
