<svg width="100" height="100" viewBox="0 0 100 100" fill="none" xmlns="http://www.w3.org/2000/svg">
<circle cx="50" cy="50" r="50" fill="white"/>
<path d="M68.2256 55.6325C67.9845 53.965 66.6909 52.665 65.0256 52.2775C58.5527 50.7675 56.9301 47.0575 56.6563 42.9425C55.5084 42.73 53.4663 42.5 50 42.5C46.5337 42.5 44.4916 42.73 43.3437 42.9425C43.07 47.0575 41.4473 50.7675 34.9744 52.2775C33.3091 52.6675 32.0155 53.965 31.7744 55.6325L30.526 64.2375C30.0865 67.2675 32.322 70 35.4316 70H64.5685C67.6755 70 69.9136 67.2675 69.474 64.2375L68.2256 55.6325ZM50 63.73C46.4961 63.73 43.6552 60.93 43.6552 57.48C43.6552 54.03 46.4961 51.23 50 51.23C53.504 51.23 56.3448 54.03 56.3448 57.48C56.3448 60.93 53.5015 63.73 50 63.73ZM74.9924 40C74.9321 36.25 65.3421 30.0025 50 30C34.6554 30.0025 25.0654 36.25 25.0076 40C24.9498 43.75 25.0604 48.63 31.375 47.8175C38.7622 46.865 38.3076 44.2975 38.3076 40.6275C38.3076 38.0675 44.3158 37.45 50 37.45C55.6842 37.45 61.6899 38.0675 61.6924 40.6275C61.6924 44.2975 61.2378 46.865 68.625 47.8175C74.9372 48.63 75.0502 43.75 74.9924 40Z" fill="#666666"/>
</svg>
