<svg width="100" height="100" viewBox="0 0 100 100" fill="none" xmlns="http://www.w3.org/2000/svg">
<circle cx="50" cy="50" r="50" fill="white"/>
<path d="M75 38C75 35.2386 72.7614 33 70 33H30C27.2386 33 25 35.2386 25 38V68C25 70.7614 27.2386 73 30 73H70C72.7614 73 75 70.7614 75 68V38ZM70 41.825C70 42.556 69.6234 43.2353 69.0036 43.6228L52.65 53.8438C51.0286 54.8571 48.9714 54.8571 47.35 53.8438L30.9964 43.6228C30.3766 43.2353 30 42.556 30 41.825V41.825C30 40.1599 31.8316 39.1447 33.2436 40.0272L47.35 48.8438C48.9714 49.8571 51.0286 49.8571 52.65 48.8438L66.7564 40.0272C68.1684 39.1447 70 40.1599 70 41.825V41.825Z" fill="#666666"/>
</svg>
