<svg width="41" height="40" viewBox="0 0 41 40" fill="none" xmlns="http://www.w3.org/2000/svg">
<path d="M38.5875 0H1.7875C0.9025 0 0.1875 0.715 0.1875 1.6V38.4C0.1875 39.285 0.9025 40 1.7875 40H38.5875C39.4725 40 40.1875 39.285 40.1875 38.4V1.6C40.1875 0.715 39.4725 0 38.5875 0ZM33.9675 11.675H30.7725C28.2675 11.675 27.7825 12.865 27.7825 14.615V18.47H33.7625L32.9825 24.505H27.7825V40H21.5475V24.51H16.3325V18.47H21.5475V14.02C21.5475 8.855 24.7025 6.04 29.3125 6.04C31.5225 6.04 33.4175 6.205 33.9725 6.28V11.675H33.9675Z" fill="white"/>
</svg>
