<svg width="30" height="30" viewBox="0 0 30 30" fill="none" xmlns="http://www.w3.org/2000/svg">
<path d="M15 0C6.71575 0 0 6.71575 0 15C0 23.2843 6.71575 30 15 30C23.2843 30 30 23.2843 30 15C30 6.71575 23.2843 0 15 0ZM24.1924 24.1924C21.913 26.4649 18.8692 27.8075 15.6541 27.9584C12.439 28.1093 9.2828 27.0578 6.80058 25.0088C4.31836 22.9598 2.68791 20.06 2.22693 16.8745C1.76594 13.689 2.50744 10.446 4.30695 7.77736C6.10645 5.10871 8.83505 3.20562 11.9611 2.43889C15.0871 1.67216 18.3866 2.09674 21.2167 3.62987C24.0468 5.16301 26.2047 7.69489 27.27 10.7322C28.3353 13.7694 28.2316 17.0945 26.9792 20.0596C26.3265 21.6045 25.38 23.0081 24.1924 24.1924Z" fill="white"/>
<path d="M7.89502 14.0642L9.30927 15.4784L14.0001 10.7877V22.5H16.0001V10.7877L20.6909 15.4784L22.1051 14.0642L15.0001 6.95923L7.89502 14.0642V14.0642Z" fill="white"/>
</svg>
